<?xml version="1.0" encoding="us-ascii" standalone="no"?><svg xmlns="http://www.w3.org/2000/svg" xmlns:xlink="http://www.w3.org/1999/xlink" contentStyleType="text/css" height="1330px" preserveAspectRatio="none" style="width:1209px;height:1330px;background:#FFFFFF;" version="1.1" viewBox="0 0 1209 1330" width="1209px" zoomAndPan="magnify"><defs/><g><text fill="#000000" font-family="sans-serif" font-size="14" font-weight="bold" lengthAdjust="spacing" textLength="306" x="444.75" y="24.5332">Diagrama de Clases - Sistema de Pr&#233;stamos</text><!--class Puesto--><g id="elem_Puesto"><rect codeLine="6" fill="#F1F1F1" height="136.0469" id="Puesto" rx="2.5" ry="2.5" style="stroke:#181818;stroke-width:0.5;" width="182" x="783.5" y="89.6094"/><ellipse cx="848.25" cy="105.6094" fill="#ADD1B2" rx="11" ry="11" style="stroke:#181818;stroke-width:1.0;"/><path d="M851.0156,101.4844 Q851.1719,101.2656 851.3594,101.1563 Q851.5469,101.0469 851.7656,101.0469 Q852.1406,101.0469 852.375,101.3125 Q852.6094,101.5625 852.6094,102.1719 L852.6094,103.625 Q852.6094,104.2344 852.375,104.5 Q852.1406,104.7656 851.7656,104.7656 Q851.4219,104.7656 851.2188,104.5625 Q851.0156,104.375 850.9063,103.8594 Q850.8594,103.5 850.6719,103.3125 Q850.3438,102.9375 849.7344,102.7188 Q849.125,102.5 848.5,102.5 Q847.7344,102.5 847.0938,102.8281 Q846.4688,103.1563 845.9688,103.9063 Q845.4844,104.6563 845.4844,105.6875 L845.4844,106.7813 Q845.4844,108.0156 846.375,108.8438 Q847.2656,109.6563 848.8594,109.6563 Q849.7969,109.6563 850.4531,109.4063 Q850.8438,109.25 851.2656,108.8125 Q851.5313,108.5469 851.6719,108.4688 Q851.8281,108.3906 852.0313,108.3906 Q852.3594,108.3906 852.6094,108.6563 Q852.875,108.9063 852.875,109.25 Q852.875,109.5938 852.5313,110 Q852.0313,110.5781 851.2344,110.9063 Q850.1563,111.3594 848.8594,111.3594 Q847.3438,111.3594 846.1406,110.7344 Q845.1563,110.2344 844.4688,109.1719 Q843.7813,108.0938 843.7813,106.8125 L843.7813,105.6563 Q843.7813,104.3281 844.3906,103.1875 Q845.0156,102.0313 846.1094,101.4219 Q847.2031,100.7969 848.4375,100.7969 Q849.1719,100.7969 849.8125,100.9688 Q850.4688,101.125 851.0156,101.4844 Z " fill="#000000"/><text fill="#000000" font-family="sans-serif" font-size="14" lengthAdjust="spacing" textLength="44" x="868.75" y="111.3379">Puesto</text><line style="stroke:#181818;stroke-width:0.5;" x1="784.5" x2="964.5" y1="121.6094" y2="121.6094"/><text fill="#000000" font-family="sans-serif" font-size="14" lengthAdjust="spacing" textLength="103" x="789.5" y="140.1426">+id: Integer {PK}</text><text fill="#000000" font-family="sans-serif" font-size="14" lengthAdjust="spacing" textLength="135" x="789.5" y="157.752">+nombre: String(100)</text><text fill="#000000" font-family="sans-serif" font-size="14" lengthAdjust="spacing" textLength="146" x="789.5" y="175.3613">+sueldo: Decimal(10,2)</text><line style="stroke:#181818;stroke-width:1.0;" x1="784.5" x2="964.5" y1="182.4375" y2="182.4375"/><text fill="#000000" font-family="sans-serif" font-size="14" lengthAdjust="spacing" textLength="111" x="789.5" y="200.9707">+__str__(): String</text><text fill="#000000" font-family="sans-serif" font-size="14" lengthAdjust="spacing" textLength="170" x="789.5" y="218.5801">+validar_sueldo(): Boolean</text></g><!--class Empleado--><g id="elem_Empleado"><rect codeLine="15" fill="#F1F1F1" height="224.0938" id="Empleado" rx="2.5" ry="2.5" style="stroke:#181818;stroke-width:0.5;" width="253" x="211" y="45.6094"/><ellipse cx="301.75" cy="61.6094" fill="#ADD1B2" rx="11" ry="11" style="stroke:#181818;stroke-width:1.0;"/><path d="M304.5156,57.4844 Q304.6719,57.2656 304.8594,57.1563 Q305.0469,57.0469 305.2656,57.0469 Q305.6406,57.0469 305.875,57.3125 Q306.1094,57.5625 306.1094,58.1719 L306.1094,59.625 Q306.1094,60.2344 305.875,60.5 Q305.6406,60.7656 305.2656,60.7656 Q304.9219,60.7656 304.7188,60.5625 Q304.5156,60.375 304.4063,59.8594 Q304.3594,59.5 304.1719,59.3125 Q303.8438,58.9375 303.2344,58.7188 Q302.625,58.5 302,58.5 Q301.2344,58.5 300.5938,58.8281 Q299.9688,59.1563 299.4688,59.9063 Q298.9844,60.6563 298.9844,61.6875 L298.9844,62.7813 Q298.9844,64.0156 299.875,64.8438 Q300.7656,65.6563 302.3594,65.6563 Q303.2969,65.6563 303.9531,65.4063 Q304.3438,65.25 304.7656,64.8125 Q305.0313,64.5469 305.1719,64.4688 Q305.3281,64.3906 305.5313,64.3906 Q305.8594,64.3906 306.1094,64.6563 Q306.375,64.9063 306.375,65.25 Q306.375,65.5938 306.0313,66 Q305.5313,66.5781 304.7344,66.9063 Q303.6563,67.3594 302.3594,67.3594 Q300.8438,67.3594 299.6406,66.7344 Q298.6563,66.2344 297.9688,65.1719 Q297.2813,64.0938 297.2813,62.8125 L297.2813,61.6563 Q297.2813,60.3281 297.8906,59.1875 Q298.5156,58.0313 299.6094,57.4219 Q300.7031,56.7969 301.9375,56.7969 Q302.6719,56.7969 303.3125,56.9688 Q303.9688,57.125 304.5156,57.4844 Z " fill="#000000"/><text fill="#000000" font-family="sans-serif" font-size="14" lengthAdjust="spacing" textLength="63" x="322.25" y="67.3379">Empleado</text><line style="stroke:#181818;stroke-width:0.5;" x1="212" x2="463" y1="77.6094" y2="77.6094"/><text fill="#000000" font-family="sans-serif" font-size="14" lengthAdjust="spacing" textLength="103" x="217" y="96.1426">+id: Integer {PK}</text><text fill="#000000" font-family="sans-serif" font-size="14" lengthAdjust="spacing" textLength="135" x="217" y="113.752">+nombre: String(200)</text><text fill="#000000" font-family="sans-serif" font-size="14" lengthAdjust="spacing" textLength="136" x="217" y="131.3613">+fecha_ingreso: Date</text><text fill="#000000" font-family="sans-serif" font-size="14" lengthAdjust="spacing" textLength="105" x="217" y="148.9707">+activo: Boolean</text><line style="stroke:#181818;stroke-width:1.0;" x1="212" x2="463" y1="156.0469" y2="156.0469"/><text fill="#000000" font-family="sans-serif" font-size="14" lengthAdjust="spacing" textLength="186" x="217" y="174.5801">+calcular_antiguedad(): Float</text><text fill="#000000" font-family="sans-serif" font-size="14" lengthAdjust="spacing" textLength="216" x="217" y="192.1895">+obtener_puesto_actual(): Puesto</text><text fill="#000000" font-family="sans-serif" font-size="14" lengthAdjust="spacing" textLength="221" x="217" y="209.7988">+obtener_sueldo_actual(): Decimal</text><text fill="#000000" font-family="sans-serif" font-size="14" lengthAdjust="spacing" textLength="241" x="217" y="227.4082">+puede_solicitar_prestamo(): Boolean</text><text fill="#000000" font-family="sans-serif" font-size="14" lengthAdjust="spacing" textLength="221" x="217" y="245.0176">+tiene_prestamo_activo(): Boolean</text><text fill="#000000" font-family="sans-serif" font-size="14" lengthAdjust="spacing" textLength="111" x="217" y="262.627">+__str__(): String</text></g><!--class HistorialPuesto--><g id="elem_HistorialPuesto"><rect codeLine="29" fill="#F1F1F1" height="206.4844" id="HistorialPuesto" rx="2.5" ry="2.5" style="stroke:#181818;stroke-width:0.5;" width="202" x="785.5" y="462.1094"/><ellipse cx="835.25" cy="478.1094" fill="#ADD1B2" rx="11" ry="11" style="stroke:#181818;stroke-width:1.0;"/><path d="M838.0156,473.9844 Q838.1719,473.7656 838.3594,473.6563 Q838.5469,473.5469 838.7656,473.5469 Q839.1406,473.5469 839.375,473.8125 Q839.6094,474.0625 839.6094,474.6719 L839.6094,476.125 Q839.6094,476.7344 839.375,477 Q839.1406,477.2656 838.7656,477.2656 Q838.4219,477.2656 838.2188,477.0625 Q838.0156,476.875 837.9063,476.3594 Q837.8594,476 837.6719,475.8125 Q837.3438,475.4375 836.7344,475.2188 Q836.125,475 835.5,475 Q834.7344,475 834.0938,475.3281 Q833.4688,475.6563 832.9688,476.4063 Q832.4844,477.1563 832.4844,478.1875 L832.4844,479.2813 Q832.4844,480.5156 833.375,481.3438 Q834.2656,482.1563 835.8594,482.1563 Q836.7969,482.1563 837.4531,481.9063 Q837.8438,481.75 838.2656,481.3125 Q838.5313,481.0469 838.6719,480.9688 Q838.8281,480.8906 839.0313,480.8906 Q839.3594,480.8906 839.6094,481.1563 Q839.875,481.4063 839.875,481.75 Q839.875,482.0938 839.5313,482.5 Q839.0313,483.0781 838.2344,483.4063 Q837.1563,483.8594 835.8594,483.8594 Q834.3438,483.8594 833.1406,483.2344 Q832.1563,482.7344 831.4688,481.6719 Q830.7813,480.5938 830.7813,479.3125 L830.7813,478.1563 Q830.7813,476.8281 831.3906,475.6875 Q832.0156,474.5313 833.1094,473.9219 Q834.2031,473.2969 835.4375,473.2969 Q836.1719,473.2969 836.8125,473.4688 Q837.4688,473.625 838.0156,473.9844 Z " fill="#000000"/><text fill="#000000" font-family="sans-serif" font-size="14" lengthAdjust="spacing" textLength="94" x="855.75" y="483.8379">HistorialPuesto</text><line style="stroke:#181818;stroke-width:0.5;" x1="786.5" x2="986.5" y1="494.1094" y2="494.1094"/><text fill="#000000" font-family="sans-serif" font-size="14" lengthAdjust="spacing" textLength="103" x="791.5" y="512.6426">+id: Integer {PK}</text><text fill="#000000" font-family="sans-serif" font-size="14" lengthAdjust="spacing" textLength="173" x="791.5" y="530.252">+empleado_id: Integer {FK}</text><text fill="#000000" font-family="sans-serif" font-size="14" lengthAdjust="spacing" textLength="154" x="791.5" y="547.8613">+puesto_id: Integer {FK}</text><text fill="#000000" font-family="sans-serif" font-size="14" lengthAdjust="spacing" textLength="121" x="791.5" y="565.4707">+fecha_inicio: Date</text><text fill="#000000" font-family="sans-serif" font-size="14" lengthAdjust="spacing" textLength="167" x="791.5" y="583.0801">+fecha_fin: Date {nullable}</text><line style="stroke:#181818;stroke-width:1.0;" x1="786.5" x2="986.5" y1="590.1563" y2="590.1563"/><text fill="#000000" font-family="sans-serif" font-size="14" lengthAdjust="spacing" textLength="190" x="791.5" y="608.6895">+es_puesto_actual(): Boolean</text><text fill="#000000" font-family="sans-serif" font-size="14" lengthAdjust="spacing" textLength="182" x="791.5" y="626.2988">+calcular_duracion(): Integer</text><text fill="#000000" font-family="sans-serif" font-size="14" lengthAdjust="spacing" textLength="176" x="791.5" y="643.9082">+cerrar_puesto(fecha): void</text><text fill="#000000" font-family="sans-serif" font-size="14" lengthAdjust="spacing" textLength="111" x="791.5" y="661.5176">+__str__(): String</text></g><!--class Prestamo--><g id="elem_Prestamo"><rect codeLine="42" fill="#F1F1F1" height="435.4063" id="Prestamo" rx="2.5" ry="2.5" style="stroke:#181818;stroke-width:0.5;" width="305" x="115" y="347.6094"/><ellipse cx="233.25" cy="363.6094" fill="#ADD1B2" rx="11" ry="11" style="stroke:#181818;stroke-width:1.0;"/><path d="M236.0156,359.4844 Q236.1719,359.2656 236.3594,359.1563 Q236.5469,359.0469 236.7656,359.0469 Q237.1406,359.0469 237.375,359.3125 Q237.6094,359.5625 237.6094,360.1719 L237.6094,361.625 Q237.6094,362.2344 237.375,362.5 Q237.1406,362.7656 236.7656,362.7656 Q236.4219,362.7656 236.2188,362.5625 Q236.0156,362.375 235.9063,361.8594 Q235.8594,361.5 235.6719,361.3125 Q235.3438,360.9375 234.7344,360.7188 Q234.125,360.5 233.5,360.5 Q232.7344,360.5 232.0938,360.8281 Q231.4688,361.1563 230.9688,361.9063 Q230.4844,362.6563 230.4844,363.6875 L230.4844,364.7813 Q230.4844,366.0156 231.375,366.8438 Q232.2656,367.6563 233.8594,367.6563 Q234.7969,367.6563 235.4531,367.4063 Q235.8438,367.25 236.2656,366.8125 Q236.5313,366.5469 236.6719,366.4688 Q236.8281,366.3906 237.0313,366.3906 Q237.3594,366.3906 237.6094,366.6563 Q237.875,366.9063 237.875,367.25 Q237.875,367.5938 237.5313,368 Q237.0313,368.5781 236.2344,368.9063 Q235.1563,369.3594 233.8594,369.3594 Q232.3438,369.3594 231.1406,368.7344 Q230.1563,368.2344 229.4688,367.1719 Q228.7813,366.0938 228.7813,364.8125 L228.7813,363.6563 Q228.7813,362.3281 229.3906,361.1875 Q230.0156,360.0313 231.1094,359.4219 Q232.2031,358.7969 233.4375,358.7969 Q234.1719,358.7969 234.8125,358.9688 Q235.4688,359.125 236.0156,359.4844 Z " fill="#000000"/><text fill="#000000" font-family="sans-serif" font-size="14" lengthAdjust="spacing" textLength="60" x="253.75" y="369.3379">Prestamo</text><line style="stroke:#181818;stroke-width:0.5;" x1="116" x2="419" y1="379.6094" y2="379.6094"/><text fill="#000000" font-family="sans-serif" font-size="14" lengthAdjust="spacing" textLength="103" x="121" y="398.1426">+id: Integer {PK}</text><text fill="#000000" font-family="sans-serif" font-size="14" lengthAdjust="spacing" textLength="173" x="121" y="415.752">+empleado_id: Integer {FK}</text><text fill="#000000" font-family="sans-serif" font-size="14" lengthAdjust="spacing" textLength="143" x="121" y="433.3613">+monto: Decimal(12,2)</text><text fill="#000000" font-family="sans-serif" font-size="14" lengthAdjust="spacing" textLength="142" x="121" y="450.9707">+plazo_meses: Integer</text><text fill="#000000" font-family="sans-serif" font-size="14" lengthAdjust="spacing" textLength="140" x="121" y="468.5801">+fecha_solicitud: Date</text><text fill="#000000" font-family="sans-serif" font-size="14" lengthAdjust="spacing" textLength="223" x="121" y="486.1895">+fecha_aprobacion: Date {nullable}</text><text fill="#000000" font-family="sans-serif" font-size="14" lengthAdjust="spacing" textLength="235" x="121" y="503.7988">+tasa_interes_mensual: Decimal(5,2)</text><text fill="#000000" font-family="sans-serif" font-size="14" lengthAdjust="spacing" textLength="211" x="121" y="521.4082">+pago_fijo_capital: Decimal(12,2)</text><text fill="#000000" font-family="sans-serif" font-size="14" lengthAdjust="spacing" textLength="258" x="121" y="539.0176">+fecha_inicio_descuento: Date {nullable}</text><text fill="#000000" font-family="sans-serif" font-size="14" lengthAdjust="spacing" textLength="241" x="121" y="556.627">+fecha_fin_descuento: Date {nullable}</text><text fill="#000000" font-family="sans-serif" font-size="14" lengthAdjust="spacing" textLength="184" x="121" y="574.2363">+saldo_actual: Decimal(12,2)</text><text fill="#000000" font-family="sans-serif" font-size="14" lengthAdjust="spacing" textLength="122" x="121" y="591.8457">+estado: String(20)</text><line style="stroke:#181818;stroke-width:1.0;" x1="116" x2="419" y1="598.9219" y2="598.9219"/><text fill="#000000" font-family="sans-serif" font-size="14" lengthAdjust="spacing" textLength="214" x="121" y="617.4551">+calcular_pago_capital(): Decimal</text><text fill="#000000" font-family="sans-serif" font-size="14" lengthAdjust="spacing" textLength="293" x="121" y="635.0645">+calcular_monto_maximo_permitido(): Decimal</text><text fill="#000000" font-family="sans-serif" font-size="14" lengthAdjust="spacing" textLength="189" x="121" y="652.6738">+validar_requisitos(): Boolean</text><text fill="#000000" font-family="sans-serif" font-size="14" lengthAdjust="spacing" textLength="137" x="121" y="670.2832">+aprobar(fecha): void</text><text fill="#000000" font-family="sans-serif" font-size="14" lengthAdjust="spacing" textLength="148" x="121" y="687.8926">+rechazar(motivo): void</text><text fill="#000000" font-family="sans-serif" font-size="14" lengthAdjust="spacing" textLength="259" x="121" y="705.502">+generar_calendario_pagos(): List&lt;Dict&gt;</text><text fill="#000000" font-family="sans-serif" font-size="14" lengthAdjust="spacing" textLength="173" x="121" y="723.1113">+esta_concluido(): Boolean</text><text fill="#000000" font-family="sans-serif" font-size="14" lengthAdjust="spacing" textLength="226" x="121" y="740.7207">+obtener_total_intereses(): Decimal</text><text fill="#000000" font-family="sans-serif" font-size="14" lengthAdjust="spacing" textLength="216" x="121" y="758.3301">+obtener_total_pagado(): Decimal</text><text fill="#000000" font-family="sans-serif" font-size="14" lengthAdjust="spacing" textLength="111" x="121" y="775.9395">+__str__(): String</text></g><!--class Abono--><g id="elem_Abono"><rect codeLine="68" fill="#F1F1F1" height="276.9219" id="Abono" rx="2.5" ry="2.5" style="stroke:#181818;stroke-width:0.5;" width="279" x="7" y="860.6094"/><ellipse cx="121.75" cy="876.6094" fill="#ADD1B2" rx="11" ry="11" style="stroke:#181818;stroke-width:1.0;"/><path d="M124.5156,872.4844 Q124.6719,872.2656 124.8594,872.1563 Q125.0469,872.0469 125.2656,872.0469 Q125.6406,872.0469 125.875,872.3125 Q126.1094,872.5625 126.1094,873.1719 L126.1094,874.625 Q126.1094,875.2344 125.875,875.5 Q125.6406,875.7656 125.2656,875.7656 Q124.9219,875.7656 124.7188,875.5625 Q124.5156,875.375 124.4063,874.8594 Q124.3594,874.5 124.1719,874.3125 Q123.8438,873.9375 123.2344,873.7188 Q122.625,873.5 122,873.5 Q121.2344,873.5 120.5938,873.8281 Q119.9688,874.1563 119.4688,874.9063 Q118.9844,875.6563 118.9844,876.6875 L118.9844,877.7813 Q118.9844,879.0156 119.875,879.8438 Q120.7656,880.6563 122.3594,880.6563 Q123.2969,880.6563 123.9531,880.4063 Q124.3438,880.25 124.7656,879.8125 Q125.0313,879.5469 125.1719,879.4688 Q125.3281,879.3906 125.5313,879.3906 Q125.8594,879.3906 126.1094,879.6563 Q126.375,879.9063 126.375,880.25 Q126.375,880.5938 126.0313,881 Q125.5313,881.5781 124.7344,881.9063 Q123.6563,882.3594 122.3594,882.3594 Q120.8438,882.3594 119.6406,881.7344 Q118.6563,881.2344 117.9688,880.1719 Q117.2813,879.0938 117.2813,877.8125 L117.2813,876.6563 Q117.2813,875.3281 117.8906,874.1875 Q118.5156,873.0313 119.6094,872.4219 Q120.7031,871.7969 121.9375,871.7969 Q122.6719,871.7969 123.3125,871.9688 Q123.9688,872.125 124.5156,872.4844 Z " fill="#000000"/><text fill="#000000" font-family="sans-serif" font-size="14" lengthAdjust="spacing" textLength="41" x="142.25" y="882.3379">Abono</text><line style="stroke:#181818;stroke-width:0.5;" x1="8" x2="285" y1="892.6094" y2="892.6094"/><text fill="#000000" font-family="sans-serif" font-size="14" lengthAdjust="spacing" textLength="103" x="13" y="911.1426">+id: Integer {PK}</text><text fill="#000000" font-family="sans-serif" font-size="14" lengthAdjust="spacing" textLength="170" x="13" y="928.752">+prestamo_id: Integer {FK}</text><text fill="#000000" font-family="sans-serif" font-size="14" lengthAdjust="spacing" textLength="156" x="13" y="946.3613">+numero_abono: Integer</text><text fill="#000000" font-family="sans-serif" font-size="14" lengthAdjust="spacing" textLength="81" x="13" y="963.9707">+fecha: Date</text><text fill="#000000" font-family="sans-serif" font-size="14" lengthAdjust="spacing" textLength="192" x="13" y="981.5801">+monto_capital: Decimal(12,2)</text><text fill="#000000" font-family="sans-serif" font-size="14" lengthAdjust="spacing" textLength="194" x="13" y="999.1895">+monto_interes: Decimal(12,2)</text><text fill="#000000" font-family="sans-serif" font-size="14" lengthAdjust="spacing" textLength="203" x="13" y="1016.7988">+monto_cobrado: Decimal(12,2)</text><text fill="#000000" font-family="sans-serif" font-size="14" lengthAdjust="spacing" textLength="184" x="13" y="1034.4082">+saldo_actual: Decimal(12,2)</text><line style="stroke:#181818;stroke-width:1.0;" x1="8" x2="285" y1="1041.4844" y2="1041.4844"/><text fill="#000000" font-family="sans-serif" font-size="14" lengthAdjust="spacing" textLength="267" x="13" y="1060.0176">+calcular_interes(saldo_anterior): Decimal</text><text fill="#000000" font-family="sans-serif" font-size="14" lengthAdjust="spacing" textLength="207" x="13" y="1077.627">+calcular_monto_total(): Decimal</text><text fill="#000000" font-family="sans-serif" font-size="14" lengthAdjust="spacing" textLength="142" x="13" y="1095.2363">+aplicar_abono(): void</text><text fill="#000000" font-family="sans-serif" font-size="14" lengthAdjust="spacing" textLength="186" x="13" y="1112.8457">+es_ultimo_abono(): Boolean</text><text fill="#000000" font-family="sans-serif" font-size="14" lengthAdjust="spacing" textLength="111" x="13" y="1130.4551">+__str__(): String</text></g><!--class EstadoPrestamo--><g id="elem_EstadoPrestamo"><rect codeLine="85" fill="#F1F1F1" height="136.0469" id="EstadoPrestamo" rx="2.5" ry="2.5" style="stroke:#181818;stroke-width:0.5;" width="136" x="321.5" y="931.1094"/><ellipse cx="336.5" cy="947.1094" fill="#EB937F" rx="11" ry="11" style="stroke:#181818;stroke-width:1.0;"/><path d="M335.3594,947.9063 L335.3594,950.4063 L339.6875,950.4063 L339.6875,949.4844 Q339.6875,948.875 339.9219,948.6094 Q340.1719,948.3438 340.5469,948.3438 Q340.9219,948.3438 341.1563,948.6094 Q341.3906,948.875 341.3906,949.4844 L341.3906,952.1094 L333.3906,952.1094 Q332.7656,952.1094 332.5,951.875 Q332.25,951.6406 332.25,951.25 Q332.25,950.875 332.5156,950.6406 Q332.7813,950.4063 333.3906,950.4063 L333.6563,950.4063 L333.6563,943.75 L333.3906,943.75 Q332.7656,943.75 332.5,943.5156 Q332.25,943.2813 332.25,942.8906 Q332.25,942.5156 332.5,942.2813 Q332.7656,942.0469 333.3906,942.0469 L341.0156,942.0469 L341.0156,944.6406 Q341.0156,945.25 340.7813,945.5156 Q340.5625,945.7656 340.1719,945.7656 Q339.7969,945.7656 339.5625,945.5156 Q339.3281,945.25 339.3281,944.6406 L339.3281,943.75 L335.3594,943.75 L335.3594,946.2031 L336.8438,946.2031 Q336.8438,945.5469 336.9688,945.3594 Q337.2344,944.9531 337.7031,944.9531 Q338.0781,944.9531 338.3125,945.2188 Q338.5469,945.4688 338.5469,946.0781 L338.5469,948.0469 Q338.5469,948.5938 338.4219,948.7813 Q338.1563,949.1719 337.7031,949.1719 Q337.2344,949.1719 336.9688,948.7656 Q336.8438,948.5781 336.8438,947.9063 L335.3594,947.9063 Z " fill="#000000"/><text fill="#000000" font-family="sans-serif" font-size="14" lengthAdjust="spacing" textLength="104" x="350.5" y="952.8379">EstadoPrestamo</text><line style="stroke:#181818;stroke-width:0.5;" x1="322.5" x2="456.5" y1="963.1094" y2="963.1094"/><text fill="#000000" font-family="sans-serif" font-size="14" lengthAdjust="spacing" textLength="83" x="327.5" y="981.6426">SOLICITADO</text><text fill="#000000" font-family="sans-serif" font-size="14" lengthAdjust="spacing" textLength="78" x="327.5" y="999.252">APROBADO</text><text fill="#000000" font-family="sans-serif" font-size="14" lengthAdjust="spacing" textLength="51" x="327.5" y="1016.8613">ACTIVO</text><text fill="#000000" font-family="sans-serif" font-size="14" lengthAdjust="spacing" textLength="81" x="327.5" y="1034.4707">CONCLUIDO</text><text fill="#000000" font-family="sans-serif" font-size="14" lengthAdjust="spacing" textLength="85" x="327.5" y="1052.0801">RECHAZADO</text><line style="stroke:#181818;stroke-width:0.5;" x1="322.5" x2="456.5" y1="1059.1563" y2="1059.1563"/></g><g id="elem_GMN13"><path d="M499,120.1094 L499,153.6094 L464.1,157.6094 L499,161.6094 L499,195.5156 A0,0 0 0 0 499,195.5156 L736,195.5156 A0,0 0 0 0 736,195.5156 L736,130.1094 L726,120.1094 L499,120.1094 A0,0 0 0 0 499,120.1094 " fill="#FEFFDD" style="stroke:#181818;stroke-width:0.5;"/><path d="M726,120.1094 L726,130.1094 L736,130.1094 L726,120.1094 " fill="#FEFFDD" style="stroke:#181818;stroke-width:0.5;"/><text fill="#000000" font-family="sans-serif" font-size="13" font-weight="bold" lengthAdjust="spacing" textLength="122" x="505" y="138.6045">Reglas de negocio:</text><text fill="#000000" font-family="sans-serif" font-size="13" lengthAdjust="spacing" textLength="204" x="505" y="154.9561">- Solo puede tener un puesto activo</text><text fill="#000000" font-family="sans-serif" font-size="13" lengthAdjust="spacing" textLength="216" x="505" y="171.3076">- Antig&#252;edad &gt;= 1 a&#241;o para pr&#233;stamo</text><text fill="#000000" font-family="sans-serif" font-size="13" lengthAdjust="spacing" textLength="195" x="505" y="187.6592">- Solo un pr&#233;stamo activo a la vez</text></g><g id="elem_GMN16"><path d="M455,494.6094 L455,561.1094 L420.28,565.1094 L455,569.1094 L455,635.4219 A0,0 0 0 0 455,635.4219 L750,635.4219 A0,0 0 0 0 750,635.4219 L750,504.6094 L740,494.6094 L455,494.6094 A0,0 0 0 0 455,494.6094 " fill="#FEFFDD" style="stroke:#181818;stroke-width:0.5;"/><path d="M740,494.6094 L740,504.6094 L750,504.6094 L740,494.6094 " fill="#FEFFDD" style="stroke:#181818;stroke-width:0.5;"/><text fill="#000000" font-family="sans-serif" font-size="13" font-weight="bold" lengthAdjust="spacing" textLength="63" x="461" y="513.1045">F&#243;rmulas:</text><text fill="#000000" font-family="sans-serif" font-size="13" lengthAdjust="spacing" textLength="214" x="461" y="529.4561">pago_capital = monto / plazo_meses</text><text fill="#000000" font-family="sans-serif" font-size="13" lengthAdjust="spacing" textLength="187" x="461" y="545.8076">monto_max = sueldo_actual &#215; 6</text><text fill="#000000" font-family="sans-serif" font-size="13" lengthAdjust="spacing" textLength="4" x="461" y="562.1592">&#160;</text><text fill="#000000" font-family="sans-serif" font-size="13" font-weight="bold" lengthAdjust="spacing" textLength="52" x="461" y="578.5107">Estados:</text><text fill="#000000" font-family="sans-serif" font-size="13" lengthAdjust="spacing" textLength="253" x="461" y="594.8623">SOLICITADO &#8594; APROBADO/RECHAZADO</text><text fill="#000000" font-family="sans-serif" font-size="13" lengthAdjust="spacing" textLength="274" x="461" y="611.2139">APROBADO &#8594; ACTIVO (al registrar 1er abono)</text><text fill="#000000" font-family="sans-serif" font-size="13" lengthAdjust="spacing" textLength="207" x="461" y="627.5654">ACTIVO &#8594; CONCLUIDO (saldo = 0)</text></g><g id="elem_GMN19"><path d="M26,1198.6094 L26,1323.0703 A0,0 0 0 0 26,1323.0703 L267,1323.0703 A0,0 0 0 0 267,1323.0703 L267,1208.6094 L257,1198.6094 L150.5,1198.6094 L146.5,1137.8394 L142.5,1198.6094 L26,1198.6094 A0,0 0 0 0 26,1198.6094 " fill="#FEFFDD" style="stroke:#181818;stroke-width:0.5;"/><path d="M257,1198.6094 L257,1208.6094 L267,1208.6094 L257,1198.6094 " fill="#FEFFDD" style="stroke:#181818;stroke-width:0.5;"/><text fill="#000000" font-family="sans-serif" font-size="13" font-weight="bold" lengthAdjust="spacing" textLength="58" x="32" y="1217.1045">C&#225;lculos:</text><text fill="#000000" font-family="sans-serif" font-size="13" lengthAdjust="spacing" textLength="210" x="32" y="1233.4561">interes = saldo_anterior &#215; (tasa/100)</text><text fill="#000000" font-family="sans-serif" font-size="13" lengthAdjust="spacing" textLength="198" x="32" y="1249.8076">monto_cobrado = capital + interes</text><text fill="#000000" font-family="sans-serif" font-size="13" lengthAdjust="spacing" textLength="220" x="32" y="1266.1592">saldo_actual = saldo_anterior - capital</text><text fill="#000000" font-family="sans-serif" font-size="13" lengthAdjust="spacing" textLength="4" x="32" y="1282.5107">&#160;</text><text fill="#000000" font-family="sans-serif" font-size="13" font-weight="bold" lengthAdjust="spacing" textLength="74" x="32" y="1298.8623">Restricci&#243;n:</text><text fill="#000000" font-family="sans-serif" font-size="13" lengthAdjust="spacing" textLength="186" x="32" y="1315.2139">n&#250;mero_abono &lt;= plazo_meses</text></g><g id="elem_GMN22"><path d="M1000.5,120.1094 L1000.5,195.5156 A0,0 0 0 0 1000.5,195.5156 L1078.04,195.5156 L940.63,462.0194 L1086.04,195.5156 L1202.5,195.5156 A0,0 0 0 0 1202.5,195.5156 L1202.5,130.1094 L1192.5,120.1094 L1000.5,120.1094 A0,0 0 0 0 1000.5,120.1094 " fill="#FEFFDD" style="stroke:#181818;stroke-width:0.5;"/><path d="M1192.5,120.1094 L1192.5,130.1094 L1202.5,130.1094 L1192.5,120.1094 " fill="#FEFFDD" style="stroke:#181818;stroke-width:0.5;"/><text fill="#000000" font-family="sans-serif" font-size="13" font-weight="bold" lengthAdjust="spacing" textLength="74" x="1006.5" y="138.6045">Restricci&#243;n:</text><text fill="#000000" font-family="sans-serif" font-size="13" lengthAdjust="spacing" textLength="116" x="1006.5" y="154.9561">Solo un registro con</text><text fill="#000000" font-family="sans-serif" font-size="13" lengthAdjust="spacing" textLength="181" x="1006.5" y="171.3076">fecha_fin = NULL por empleado</text><text fill="#000000" font-family="sans-serif" font-size="13" lengthAdjust="spacing" textLength="86" x="1006.5" y="187.6592">(puesto actual)</text></g><!--link Empleado to HistorialPuesto--><g id="link_Empleado_HistorialPuesto"><path codeLine="94" d="M464.17,260.2694 C469.92,263.5994 475.71,266.7294 481.5,269.6094 C599.47,328.2794 664,266.0794 767.5,347.6094 C804.65,376.8694 831.87,421.0794 850.82,461.9394 " fill="none" id="Empleado-HistorialPuesto" style="stroke:#181818;stroke-width:1.0;"/><polygon fill="#000000" points="724.9332,311.0974,718.2726,304.3087,715.5543,309.5203,724.9332,311.0974" style="stroke:#000000;stroke-width:1.0;"/><text fill="#000000" font-family="sans-serif" font-size="13" lengthAdjust="spacing" textLength="28" x="729.5" y="314.1045">tiene</text><text fill="#000000" font-family="sans-serif" font-size="13" lengthAdjust="spacing" textLength="7" x="472.1022" y="263.5407">1</text><text fill="#000000" font-family="sans-serif" font-size="13" lengthAdjust="spacing" textLength="20" x="827.4654" y="451.2656">0..*</text></g><!--link Puesto to HistorialPuesto--><g id="link_Puesto_HistorialPuesto"><path codeLine="95" d="M876.5,226.0294 C878.4,290.3194 881.29,388.0394 883.48,461.9094 " fill="none" id="Puesto-HistorialPuesto" style="stroke:#181818;stroke-width:1.0;"/><polygon fill="#000000" points="884.6479,313.783,887.318,304.6549,881.4427,304.8288,884.6479,313.783" style="stroke:#000000;stroke-width:1.0;"/><text fill="#000000" font-family="sans-serif" font-size="13" lengthAdjust="spacing" textLength="63" x="893.5" y="314.1045">asignado a</text><text fill="#000000" font-family="sans-serif" font-size="13" lengthAdjust="spacing" textLength="7" x="869.3523" y="247.0621">1</text><text fill="#000000" font-family="sans-serif" font-size="13" lengthAdjust="spacing" textLength="20" x="862.5238" y="451.2334">0..*</text></g><!--link Empleado to Prestamo--><g id="link_Empleado_Prestamo"><path codeLine="96" d="M318.33,269.6794 C314.14,293.9494 309.56,320.4394 304.93,347.2594 " fill="none" id="Empleado-Prestamo" style="stroke:#181818;stroke-width:1.0;"/><polygon fill="#000000" points="317.649,313.7122,322.0845,305.2993,316.2924,304.2989,317.649,313.7122" style="stroke:#000000;stroke-width:1.0;"/><text fill="#000000" font-family="sans-serif" font-size="13" lengthAdjust="spacing" textLength="41" x="327.5" y="314.1045">solicita</text><text fill="#000000" font-family="sans-serif" font-size="13" lengthAdjust="spacing" textLength="7" x="309.8069" y="291.2504">1</text><text fill="#000000" font-family="sans-serif" font-size="13" lengthAdjust="spacing" textLength="20" x="285.9158" y="336.637">0..*</text></g><!--link Prestamo to Abono--><g id="link_Prestamo_Abono"><path codeLine="97" d="M206.82,782.7394 C199.42,809.1594 192.03,835.5694 185.08,860.3894 " fill="none" id="Prestamo-Abono" style="stroke:#181818;stroke-width:1.0;"/><polygon fill="#000000" points="200.152,826.6,205.4207,818.6822,199.7605,817.0975,200.152,826.6" style="stroke:#000000;stroke-width:1.0;"/><text fill="#000000" font-family="sans-serif" font-size="13" lengthAdjust="spacing" textLength="28" x="210.5" y="827.1045">tiene</text><text fill="#000000" font-family="sans-serif" font-size="13" lengthAdjust="spacing" textLength="7" x="197.5135" y="804.3421">1</text><text fill="#000000" font-family="sans-serif" font-size="13" lengthAdjust="spacing" textLength="20" x="166.643" y="849.8725">0..*</text></g><!--link Prestamo to EstadoPrestamo--><g id="link_Prestamo_EstadoPrestamo"><path codeLine="98" d="M328.68,782.7394 C343.9,836.6394 357.4694,884.7052 368.8694,925.0752 " fill="none" id="Prestamo-to-EstadoPrestamo" style="stroke:#181818;stroke-width:1.0;stroke-dasharray:7.0,7.0;"/><polygon fill="#181818" points="370.5,930.8494,371.9036,921.101,369.1412,926.0376,364.2047,923.2751,370.5,930.8494" style="stroke:#181818;stroke-width:1.0;"/><text fill="#000000" font-family="sans-serif" font-size="13" lengthAdjust="spacing" textLength="21" x="340.5" y="827.1045">usa</text></g><!--SRC=[dLOzRoCt4EttLqpSHDR5dq1I26S3EjdE2H5iG_QbIBEWTiTxJBYaGdADWmst-G5fKgTC6LmNfDC_oI_9y6E_9Db6qadas-6RDs-6_2B7EouHvkUJs_7bjxDpo0Gp9Z4_SRbacfNX_zXQpHULnMccv0r_G3XC4ikjG3ZZh20SWnnXGbWqi0Stt5WCQzTwzOUnh5GcINmikAxGM0MF2S0RuFa8fj9YWHeUhxzxyejIbGkD8xYXKsKnE3eytFNhfaAHgn6SOSPB9cZZgsEtixVdjzFKM9scWztwIxzwpmJFcKx3nsxpdL82cKoUQaRdvP8Myl_2wRZcT8VPHvRIaaRZg36BVfrbbj-hzh26PSP4LWaYnAJbHOKvonsf2w6OzG2ri2XHfqklKqg1AigL846u7YOarS54QJo80kIO6YLunYqTk2IAhX9T3HpESehLxAQ1-JfeKzn6llTKRQKv4wzN5gFIQM_t8kx6ZBVkrJfJBbsPmp9vEAp1ewo4O0k1JwtYQ3QrxARML2IlDAFmqW4YWG10hLbTa84_aX3tYkUlINCTHVt_cfHAsgxbZuFbIIp17bHQ8dLSdssG99QzoZV4Oakj5ZxFRPgH7PXnGbiaxXHV6fAi9V1rSpuh50d_eqepjYH_YMqakrLBSpHPXI6TBUSsfNmDQ5Zh-Ms7EidTc6XQTNTBztdwaVbwupGWBtvQia-S-cA9kkIMXndIXTSJHkFF5JVSAhFki22vthIETWiFj5CgrtJThS8rE4KbCYWfF0deEFlOC-gujsSyiwTDmYbDvanKFD_et7fMM4MfreL5ivv57qP7iSrCNt3wUA7aYpPlvijMcykgH4r5TL6ssBbZub2J5pmN037Fvm6PMcYMRssjbmssxgHuqY1-vVvnfL-sb1TvNLssf9Pr5uCJOT3r0ZLY9QmpORFtwcn6aXJEVIlqfj3DrMmwcTwEpwxep_XwVlKk_fpSJhztFoPNbvFPXwbVf7V1-_4F3a0HluGv2Zyuq2JDdRbpj4EImCxX_lvmP-Ck68NR1KwJkF0Qd1bUI1UNqJVF7DBaCuBwTdC7rAjzS31cXqSDszy_NTTd19LXBj5Bgey1_EGhGft9J28LJIBDYuyMr5tpP22DXiCv5jG3xhKZiL3kWXeEdL7WHWaLhc7mpGMLZ9TSV1zurDWz15P_kvS0d9x04R3Ld_GPFR-eQUBhgGtdGjIhCGff9HZSumCLFGT7D0bq1TvvjdM2dkt5whCkoOiciEmEGZW9pG47tUk5GCqW94JlpG6ht-0R0lZ8GSqOj_KP_FFBhutJ3bfBjVOB26z0651GZGKPWwOV795etlExZKKzk34fXBuZNZJcrz9VA6jLwGJm9l0S9wlVNIVMB6FpkhHwxUlo6hYRy22-Fdj3W-2rOc_g48JfpetDY7lrDxLSSogAvbd6LvzbO2DNVxLZ4DwUzAgmbfnLIvVPMWSz4xXsJXHM0TqMjDnSkSJsyiDi1alYYQsr1wrPAQMElly2]--></g></svg>