<?xml version="1.0" encoding="us-ascii" standalone="no"?><svg xmlns="http://www.w3.org/2000/svg" xmlns:xlink="http://www.w3.org/1999/xlink" contentStyleType="text/css" height="2345px" preserveAspectRatio="none" style="width:2595px;height:2345px;background:#FFFFFF;" version="1.1" viewBox="0 0 2595 2345" width="2595px" zoomAndPan="magnify"><defs/><g><text fill="#000000" font-family="sans-serif" font-size="14" font-weight="bold" lengthAdjust="spacing" textLength="409" x="1091.75" y="34.5332">Diagrama de Procesos de Negocio - Sistema de Pr&#233;stamos</text><rect fill="none" height="22.6406" style="stroke:none;stroke-width:1.0;" width="2562.5" x="15" y="51.0645"/><ellipse cx="123" cy="88.7051" fill="#222222" rx="10" ry="10" style="stroke:#222222;stroke-width:1.0;"/><rect fill="#F1F1F1" height="35.0938" rx="12.5" ry="12.5" style="stroke:#181818;stroke-width:0.5;" width="198" x="24" y="118.7051"/><text fill="#000000" font-family="sans-serif" font-size="12" lengthAdjust="spacing" textLength="178" x="34" y="141.1621">Gestionar Empleados y Puestos</text><rect fill="none" height="225.2031" style="stroke:#000000;stroke-width:1.5;" width="366" x="21" y="163.7988"/><path d="M174,163.7988 L174,174.4082 L164,184.4082 L21,184.4082 " fill="none" style="stroke:#000000;stroke-width:1.5;"/><text fill="#000000" font-family="sans-serif" font-size="14" lengthAdjust="spacing" textLength="143" x="24" y="179.332">Gesti&#243;n de Empleados</text><rect fill="#F1F1F1" height="35.0938" rx="12.5" ry="12.5" style="stroke:#181818;stroke-width:0.5;" width="166" x="40" y="201.4082"/><text fill="#000000" font-family="sans-serif" font-size="12" lengthAdjust="spacing" textLength="146" x="50" y="223.8652">Registrar nuevo empleado</text><path d="M212,246.502 L212,280.2051 L192,284.2051 L212,288.2051 L212,321.9082 A0,0 0 0 0 212,321.9082 L377,321.9082 A0,0 0 0 0 377,321.9082 L377,256.502 L367,246.502 L212,246.502 A0,0 0 0 0 212,246.502 " fill="#FEFFDD" style="stroke:#181818;stroke-width:0.5;"/><path d="M367,246.502 L367,256.502 L377,256.502 L367,246.502 " fill="#FEFFDD" style="stroke:#181818;stroke-width:0.5;"/><text fill="#000000" font-family="sans-serif" font-size="13" lengthAdjust="spacing" textLength="144" x="218" y="264.9971">Validar datos completos:</text><text fill="#000000" font-family="sans-serif" font-size="13" lengthAdjust="spacing" textLength="53" x="218" y="281.3486">- Nombre</text><text fill="#000000" font-family="sans-serif" font-size="13" lengthAdjust="spacing" textLength="108" x="218" y="297.7002">- Fecha de ingreso</text><text fill="#000000" font-family="sans-serif" font-size="13" lengthAdjust="spacing" textLength="105" x="218" y="314.0518">- Puesto asignado</text><rect fill="#F1F1F1" height="35.0938" rx="12.5" ry="12.5" style="stroke:#181818;stroke-width:0.5;" width="138" x="54" y="266.6582"/><text fill="#000000" font-family="sans-serif" font-size="12" lengthAdjust="spacing" textLength="118" x="64" y="289.1152">Asignar puesto inicial</text><rect fill="#F1F1F1" height="35.0938" rx="12.5" ry="12.5" style="stroke:#181818;stroke-width:0.5;" width="184" x="31" y="341.9082"/><text fill="#000000" font-family="sans-serif" font-size="12" lengthAdjust="spacing" textLength="164" x="41" y="364.3652">Actualizar historial de puestos</text><line style="stroke:#000000;stroke-width:1.5;" x1="15" x2="15" y1="51.0645" y2="2333.2871"/><rect fill="#F1F1F1" height="35.0938" rx="12.5" ry="12.5" style="stroke:#181818;stroke-width:0.5;" width="121" x="862.75" y="409.002"/><text fill="#000000" font-family="sans-serif" font-size="12" lengthAdjust="spacing" textLength="101" x="872.75" y="431.459">Solicitar Pr&#233;stamo</text><rect fill="none" height="449.0781" style="stroke:#000000;stroke-width:1.5;" width="840" x="397" y="454.0957"/><path d="M562,454.0957 L562,464.7051 L552,474.7051 L397,474.7051 " fill="none" style="stroke:#000000;stroke-width:1.5;"/><text fill="#000000" font-family="sans-serif" font-size="14" lengthAdjust="spacing" textLength="155" x="400" y="469.6289">Validaci&#243;n de Requisitos</text><rect fill="#F1F1F1" height="35.0938" rx="12.5" ry="12.5" style="stroke:#181818;stroke-width:0.5;" width="180" x="833.25" y="491.7051"/><text fill="#000000" font-family="sans-serif" font-size="12" lengthAdjust="spacing" textLength="160" x="843.25" y="514.1621">Verificar antig&#252;edad &gt;= 1 a&#241;o</text><polygon fill="#F1F1F1" points="871.75,546.7988,974.75,546.7988,986.75,558.7988,974.75,570.7988,871.75,570.7988,859.75,558.7988,871.75,546.7988" style="stroke:#181818;stroke-width:0.5;"/><text fill="#000000" font-family="sans-serif" font-size="11" lengthAdjust="spacing" textLength="103" x="871.75" y="563.2998">&#191;Cumple antig&#252;edad?</text><text fill="#000000" font-family="sans-serif" font-size="11" lengthAdjust="spacing" textLength="9" x="850.75" y="556.3818">S&#237;</text><text fill="#000000" font-family="sans-serif" font-size="11" lengthAdjust="spacing" textLength="13" x="986.75" y="556.3818">No</text><rect fill="#F1F1F1" height="35.0938" rx="12.5" ry="12.5" style="stroke:#181818;stroke-width:0.5;" width="143" x="655" y="580.7988"/><text fill="#000000" font-family="sans-serif" font-size="12" lengthAdjust="spacing" textLength="123" x="665" y="603.2559">Calcular sueldo actual</text><rect fill="#F1F1F1" height="35.0938" rx="12.5" ry="12.5" style="stroke:#181818;stroke-width:0.5;" width="212" x="620.5" y="635.8926"/><text fill="#000000" font-family="sans-serif" font-size="12" lengthAdjust="spacing" textLength="192" x="630.5" y="658.3496">Verificar monto &lt;= 6 meses sueldo</text><polygon fill="#F1F1F1" points="690.5,690.9863,762.5,690.9863,774.5,702.9863,762.5,714.9863,690.5,714.9863,678.5,702.9863,690.5,690.9863" style="stroke:#181818;stroke-width:0.5;"/><text fill="#000000" font-family="sans-serif" font-size="11" lengthAdjust="spacing" textLength="72" x="690.5" y="707.4873">&#191;Monto v&#225;lido?</text><text fill="#000000" font-family="sans-serif" font-size="11" lengthAdjust="spacing" textLength="9" x="669.5" y="700.5693">S&#237;</text><text fill="#000000" font-family="sans-serif" font-size="11" lengthAdjust="spacing" textLength="13" x="774.5" y="700.5693">No</text><rect fill="#F1F1F1" height="35.0938" rx="12.5" ry="12.5" style="stroke:#181818;stroke-width:0.5;" width="168" x="479" y="724.9863"/><text fill="#000000" font-family="sans-serif" font-size="12" lengthAdjust="spacing" textLength="148" x="489" y="747.4434">Verificar pr&#233;stamos activos</text><polygon fill="#F1F1F1" points="503.5,780.0801,622.5,780.0801,634.5,792.0801,622.5,804.0801,503.5,804.0801,491.5,792.0801,503.5,780.0801" style="stroke:#181818;stroke-width:0.5;"/><text fill="#000000" font-family="sans-serif" font-size="11" lengthAdjust="spacing" textLength="119" x="503.5" y="796.5811">&#191;Sin pr&#233;stamos activos?</text><text fill="#000000" font-family="sans-serif" font-size="11" lengthAdjust="spacing" textLength="9" x="482.5" y="789.6631">S&#237;</text><text fill="#000000" font-family="sans-serif" font-size="11" lengthAdjust="spacing" textLength="13" x="634.5" y="789.6631">No</text><rect fill="#F1F1F1" height="35.0938" rx="12.5" ry="12.5" style="stroke:#181818;stroke-width:0.5;" width="120" x="409" y="814.0801"/><text fill="#000000" font-family="sans-serif" font-size="12" lengthAdjust="spacing" textLength="100" x="419" y="836.5371">Registrar solicitud</text><rect fill="#F1F1F1" height="35.0938" rx="12.5" ry="12.5" style="stroke:#181818;stroke-width:0.5;" width="216" x="549" y="814.0801"/><text fill="#000000" font-family="sans-serif" font-size="12" lengthAdjust="spacing" textLength="196" x="559" y="836.5371">Rechazar - Ya tiene pr&#233;stamo activo</text><ellipse cx="657" cy="880.1738" fill="none" rx="11" ry="11" style="stroke:#222222;stroke-width:1.0;"/><ellipse cx="657" cy="880.1738" fill="#222222" rx="6" ry="6" style="stroke:#222222;stroke-width:1.0;"/><rect fill="#F1F1F1" height="35.0938" rx="12.5" ry="12.5" style="stroke:#181818;stroke-width:0.5;" width="190" x="795" y="724.9863"/><text fill="#000000" font-family="sans-serif" font-size="12" lengthAdjust="spacing" textLength="170" x="805" y="747.4434">Rechazar - Monto excede l&#237;mite</text><ellipse cx="890" cy="791.0801" fill="none" rx="11" ry="11" style="stroke:#222222;stroke-width:1.0;"/><ellipse cx="890" cy="791.0801" fill="#222222" rx="6" ry="6" style="stroke:#222222;stroke-width:1.0;"/><rect fill="#F1F1F1" height="35.0938" rx="12.5" ry="12.5" style="stroke:#181818;stroke-width:0.5;" width="210" x="1015" y="580.7988"/><text fill="#000000" font-family="sans-serif" font-size="12" lengthAdjust="spacing" textLength="190" x="1025" y="603.2559">Rechazar - Antig&#252;edad insuficiente</text><ellipse cx="1120" cy="646.8926" fill="none" rx="11" ry="11" style="stroke:#222222;stroke-width:1.0;"/><ellipse cx="1120" cy="646.8926" fill="#222222" rx="6" ry="6" style="stroke:#222222;stroke-width:1.0;"/><line style="stroke:#000000;stroke-width:1.5;" x1="391" x2="391" y1="51.0645" y2="2333.2871"/><rect fill="none" height="456.875" style="stroke:#000000;stroke-width:1.5;" width="628" x="1247" y="913.1738"/><path d="M1413,913.1738 L1413,923.7832 L1403,933.7832 L1247,933.7832 " fill="none" style="stroke:#000000;stroke-width:1.5;"/><text fill="#000000" font-family="sans-serif" font-size="14" lengthAdjust="spacing" textLength="156" x="1250" y="928.707">Aprobaci&#243;n de Pr&#233;stamo</text><rect fill="#F1F1F1" height="35.0938" rx="12.5" ry="12.5" style="stroke:#181818;stroke-width:0.5;" width="111" x="1509" y="950.7832"/><text fill="#000000" font-family="sans-serif" font-size="12" lengthAdjust="spacing" textLength="91" x="1519" y="973.2402">Revisar solicitud</text><rect fill="#F1F1F1" height="35.0938" rx="12.5" ry="12.5" style="stroke:#181818;stroke-width:0.5;" width="131" x="1499" y="1005.877"/><text fill="#000000" font-family="sans-serif" font-size="12" lengthAdjust="spacing" textLength="111" x="1509" y="1028.334">Evaluar condiciones</text><polygon fill="#F1F1F1" points="1538.5,1060.9707,1590.5,1060.9707,1602.5,1072.9707,1590.5,1084.9707,1538.5,1084.9707,1526.5,1072.9707,1538.5,1060.9707" style="stroke:#181818;stroke-width:0.5;"/><text fill="#000000" font-family="sans-serif" font-size="11" lengthAdjust="spacing" textLength="52" x="1538.5" y="1077.4717">&#191;Aprobar?</text><text fill="#000000" font-family="sans-serif" font-size="11" lengthAdjust="spacing" textLength="9" x="1517.5" y="1070.5537">S&#237;</text><text fill="#000000" font-family="sans-serif" font-size="11" lengthAdjust="spacing" textLength="13" x="1602.5" y="1070.5537">No</text><rect fill="#F1F1F1" height="35.0938" rx="12.5" ry="12.5" style="stroke:#181818;stroke-width:0.5;" width="160" x="1278" y="1094.9707"/><text fill="#000000" font-family="sans-serif" font-size="12" lengthAdjust="spacing" textLength="140" x="1288" y="1117.4277">Marcar como APROBADO</text><path d="M1477,1150.0645 L1477,1167.416 L1457,1171.416 L1477,1175.416 L1477,1192.7676 A0,0 0 0 0 1477,1192.7676 L1667,1192.7676 A0,0 0 0 0 1667,1192.7676 L1667,1160.0645 L1657,1150.0645 L1477,1150.0645 A0,0 0 0 0 1477,1150.0645 " fill="#FEFFDD" style="stroke:#181818;stroke-width:0.5;"/><path d="M1657,1150.0645 L1657,1160.0645 L1667,1160.0645 L1657,1150.0645 " fill="#FEFFDD" style="stroke:#181818;stroke-width:0.5;"/><text fill="#000000" font-family="sans-serif" font-size="13" lengthAdjust="spacing" textLength="169" x="1483" y="1168.5596">Pago capital = Monto / Plazo</text><text fill="#000000" font-family="sans-serif" font-size="13" lengthAdjust="spacing" textLength="165" x="1483" y="1184.9111">Ej: $20,000 / 12 = $1,666.67</text><rect fill="#F1F1F1" height="35.0938" rx="12.5" ry="12.5" style="stroke:#181818;stroke-width:0.5;" width="198" x="1259" y="1153.8691"/><text fill="#000000" font-family="sans-serif" font-size="12" lengthAdjust="spacing" textLength="178" x="1269" y="1176.3262">Calcular pago mensual a capital</text><rect fill="#F1F1F1" height="35.0938" rx="12.5" ry="12.5" style="stroke:#181818;stroke-width:0.5;" width="197" x="1259.5" y="1212.7676"/><text fill="#000000" font-family="sans-serif" font-size="12" lengthAdjust="spacing" textLength="177" x="1269.5" y="1235.2246">Establecer fechas de descuento</text><rect fill="#F1F1F1" height="35.0938" rx="12.5" ry="12.5" style="stroke:#181818;stroke-width:0.5;" width="181" x="1267.5" y="1267.8613"/><text fill="#000000" font-family="sans-serif" font-size="12" lengthAdjust="spacing" textLength="161" x="1277.5" y="1290.3184">Generar calendario de pagos</text><rect fill="#F1F1F1" height="35.0938" rx="12.5" ry="12.5" style="stroke:#181818;stroke-width:0.5;" width="164" x="1276" y="1322.9551"/><text fill="#000000" font-family="sans-serif" font-size="12" lengthAdjust="spacing" textLength="144" x="1286" y="1345.4121">Cambiar estado a ACTIVO</text><rect fill="#F1F1F1" height="35.0938" rx="12.5" ry="12.5" style="stroke:#181818;stroke-width:0.5;" width="168" x="1687" y="1094.9707"/><text fill="#000000" font-family="sans-serif" font-size="12" lengthAdjust="spacing" textLength="148" x="1697" y="1117.4277">Marcar como RECHAZADO</text><ellipse cx="1771" cy="1161.0645" fill="none" rx="11" ry="11" style="stroke:#222222;stroke-width:1.0;"/><ellipse cx="1771" cy="1161.0645" fill="#222222" rx="6" ry="6" style="stroke:#222222;stroke-width:1.0;"/><rect fill="none" height="599.2539" style="stroke:#000000;stroke-width:1.5;" width="612" x="1349" y="1380.0488"/><path d="M1552,1380.0488 L1552,1390.6582 L1542,1400.6582 L1349,1400.6582 " fill="none" style="stroke:#000000;stroke-width:1.5;"/><text fill="#000000" font-family="sans-serif" font-size="14" lengthAdjust="spacing" textLength="193" x="1352" y="1395.582">Gesti&#243;n de Abonos Mensuales</text><rect fill="#F1F1F1" height="35.0938" rx="12.5" ry="12.5" style="stroke:#181818;stroke-width:0.5;" width="145" x="1492" y="1461.6582"/><text fill="#000000" font-family="sans-serif" font-size="12" lengthAdjust="spacing" textLength="125" x="1502" y="1484.1152">Registrar nuevo abono</text><rect fill="#F1F1F1" height="35.0938" rx="12.5" ry="12.5" style="stroke:#181818;stroke-width:0.5;" width="143" x="1493" y="1516.752"/><text fill="#000000" font-family="sans-serif" font-size="12" lengthAdjust="spacing" textLength="123" x="1503" y="1539.209">Obtener saldo anterior</text><rect fill="#F1F1F1" height="35.0938" rx="12.5" ry="12.5" style="stroke:#181818;stroke-width:0.5;" width="156" x="1486.5" y="1571.8457"/><text fill="#000000" font-family="sans-serif" font-size="12" lengthAdjust="spacing" textLength="136" x="1496.5" y="1594.3027">Aplicar pago fijo a capital</text><path d="M1662,1616.9395 L1662,1642.4668 L1642,1646.4668 L1662,1650.4668 L1662,1675.9941 A0,0 0 0 0 1662,1675.9941 L1933,1675.9941 A0,0 0 0 0 1933,1675.9941 L1933,1626.9395 L1923,1616.9395 L1662,1616.9395 A0,0 0 0 0 1662,1616.9395 " fill="#FEFFDD" style="stroke:#181818;stroke-width:0.5;"/><path d="M1923,1616.9395 L1923,1626.9395 L1933,1626.9395 L1923,1616.9395 " fill="#FEFFDD" style="stroke:#181818;stroke-width:0.5;"/><text fill="#000000" font-family="sans-serif" font-size="13" lengthAdjust="spacing" textLength="176" x="1668" y="1635.4346">Inter&#233;s = Saldo anterior &#215; 0.01</text><text fill="#000000" font-family="sans-serif" font-size="13" lengthAdjust="spacing" textLength="229" x="1668" y="1651.7861">Monto cobrado = Pago capital + Inter&#233;s</text><text fill="#000000" font-family="sans-serif" font-size="13" lengthAdjust="spacing" textLength="250" x="1668" y="1668.1377">Nuevo saldo = Saldo anterior - Pago capital</text><rect fill="#F1F1F1" height="35.0938" rx="12.5" ry="12.5" style="stroke:#181818;stroke-width:0.5;" width="155" x="1487" y="1628.9199"/><text fill="#000000" font-family="sans-serif" font-size="12" lengthAdjust="spacing" textLength="135" x="1497" y="1651.377">Calcular inter&#233;s del mes</text><rect fill="#F1F1F1" height="35.0938" rx="12.5" ry="12.5" style="stroke:#181818;stroke-width:0.5;" width="182" x="1473.5" y="1702.0215"/><text fill="#000000" font-family="sans-serif" font-size="12" lengthAdjust="spacing" textLength="162" x="1483.5" y="1724.4785">Actualizar saldo del pr&#233;stamo</text><rect fill="#F1F1F1" height="35.0938" rx="12.5" ry="12.5" style="stroke:#181818;stroke-width:0.5;" width="169" x="1480" y="1757.1152"/><text fill="#000000" font-family="sans-serif" font-size="12" lengthAdjust="spacing" textLength="149" x="1490" y="1779.5723">Registrar detalle del abono</text><polygon fill="#F1F1F1" points="1536,1812.209,1593,1812.209,1605,1824.209,1593,1836.209,1536,1836.209,1524,1824.209,1536,1812.209" style="stroke:#181818;stroke-width:0.5;"/><text fill="#000000" font-family="sans-serif" font-size="11" lengthAdjust="spacing" textLength="57" x="1536" y="1828.71">&#191;Saldo = 0?</text><text fill="#000000" font-family="sans-serif" font-size="11" lengthAdjust="spacing" textLength="9" x="1515" y="1821.792">S&#237;</text><text fill="#000000" font-family="sans-serif" font-size="11" lengthAdjust="spacing" textLength="13" x="1605" y="1821.792">No</text><rect fill="#F1F1F1" height="35.0938" rx="12.5" ry="12.5" style="stroke:#181818;stroke-width:0.5;" width="195" x="1369" y="1846.209"/><text fill="#000000" font-family="sans-serif" font-size="12" lengthAdjust="spacing" textLength="175" x="1379" y="1868.666">Cambiar estado a CONCLUIDO</text><ellipse cx="1466.5" cy="1912.3027" fill="none" rx="11" ry="11" style="stroke:#222222;stroke-width:1.0;"/><ellipse cx="1466.5" cy="1912.3027" fill="#222222" rx="6" ry="6" style="stroke:#222222;stroke-width:1.0;"/><rect fill="#F1F1F1" height="35.0938" rx="12.5" ry="12.5" style="stroke:#181818;stroke-width:0.5;" width="157" x="1584" y="1846.209"/><text fill="#000000" font-family="sans-serif" font-size="12" lengthAdjust="spacing" textLength="137" x="1594" y="1868.666">Mantener estado ACTIVO</text><polygon fill="#F1F1F1" points="1564.5,1417.6582,1576.5,1429.6582,1564.5,1441.6582,1552.5,1429.6582,1564.5,1417.6582" style="stroke:#181818;stroke-width:0.5;"/><polygon fill="#F1F1F1" points="1513,1943.3027,1616,1943.3027,1628,1955.3027,1616,1967.3027,1513,1967.3027,1501,1955.3027,1513,1943.3027" style="stroke:#181818;stroke-width:0.5;"/><text fill="#000000" font-family="sans-serif" font-size="11" lengthAdjust="spacing" textLength="103" x="1513" y="1959.8037">&#191;Continuar pagando?</text><text fill="#000000" font-family="sans-serif" font-size="11" lengthAdjust="spacing" textLength="9" x="1628" y="1952.8857">S&#237;</text><line style="stroke:#000000;stroke-width:1.5;" x1="1241" x2="1241" y1="51.0645" y2="2333.2871"/><rect fill="none" height="301.9844" style="stroke:#000000;stroke-width:1.5;" width="601" x="1971" y="1989.3027"/><path d="M2137,1989.3027 L2137,1999.9121 L2127,2009.9121 L1971,2009.9121 " fill="none" style="stroke:#000000;stroke-width:1.5;"/><text fill="#000000" font-family="sans-serif" font-size="14" lengthAdjust="spacing" textLength="156" x="1974" y="2004.8359">Generaci&#243;n de Reportes</text><rect fill="#F1F1F1" height="35.0938" rx="12.5" ry="12.5" style="stroke:#181818;stroke-width:0.5;" width="167" x="2188" y="2026.9121"/><text fill="#000000" font-family="sans-serif" font-size="12" lengthAdjust="spacing" textLength="147" x="2198" y="2049.3691">Seleccionar tipo de reporte</text><rect fill="#555555" height="6" rx="2.5" ry="2.5" style="stroke:#555555;stroke-width:1.0;" width="581" x="1981" y="2082.0059"/><rect fill="#F1F1F1" height="35.0938" rx="12.5" ry="12.5" style="stroke:#181818;stroke-width:0.5;" width="142" x="1993" y="2108.0059"/><text fill="#000000" font-family="sans-serif" font-size="12" lengthAdjust="spacing" textLength="122" x="2003" y="2130.4629">Historial de empleado</text><rect fill="#F1F1F1" height="35.0938" rx="12.5" ry="12.5" style="stroke:#181818;stroke-width:0.5;" width="139" x="2145" y="2108.0059"/><text fill="#000000" font-family="sans-serif" font-size="12" lengthAdjust="spacing" textLength="119" x="2155" y="2130.4629">Detalles de pr&#233;stamo</text><rect fill="#F1F1F1" height="35.0938" rx="12.5" ry="12.5" style="stroke:#181818;stroke-width:0.5;" width="122" x="2312" y="2108.0059"/><text fill="#000000" font-family="sans-serif" font-size="12" lengthAdjust="spacing" textLength="102" x="2322" y="2130.4629">Pr&#233;stamos activos</text><rect fill="#F1F1F1" height="35.0938" rx="12.5" ry="12.5" style="stroke:#181818;stroke-width:0.5;" width="106" x="2444" y="2108.0059"/><text fill="#000000" font-family="sans-serif" font-size="12" lengthAdjust="spacing" textLength="86" x="2454" y="2130.4629">Listado general</text><rect fill="#555555" height="6" rx="2.5" ry="2.5" style="stroke:#555555;stroke-width:1.0;" width="581" x="1981" y="2163.0996"/><rect fill="#F1F1F1" height="35.0938" rx="12.5" ry="12.5" style="stroke:#181818;stroke-width:0.5;" width="107" x="2218" y="2189.0996"/><text fill="#000000" font-family="sans-serif" font-size="12" lengthAdjust="spacing" textLength="87" x="2228" y="2211.5566">Generar reporte</text><rect fill="#F1F1F1" height="35.0938" rx="12.5" ry="12.5" style="stroke:#181818;stroke-width:0.5;" width="121" x="2211" y="2244.1934"/><text fill="#000000" font-family="sans-serif" font-size="12" lengthAdjust="spacing" textLength="101" x="2221" y="2266.6504">Exportar/Visualizar</text><ellipse cx="2271.5" cy="2322.2871" fill="none" rx="11" ry="11" style="stroke:#222222;stroke-width:1.0;"/><ellipse cx="2271.5" cy="2322.2871" fill="#222222" rx="6" ry="6" style="stroke:#222222;stroke-width:1.0;"/><line style="stroke:#000000;stroke-width:1.5;" x1="1965" x2="1965" y1="51.0645" y2="2333.2871"/><line style="stroke:#000000;stroke-width:1.5;" x1="2576" x2="2576" y1="51.0645" y2="2333.2871"/><line style="stroke:#181818;stroke-width:1.0;" x1="123" x2="123" y1="98.7051" y2="118.7051"/><polygon fill="#181818" points="119,108.7051,123,118.7051,127,108.7051,123,112.7051" style="stroke:#181818;stroke-width:1.0;"/><line style="stroke:#181818;stroke-width:1.0;" x1="123" x2="123" y1="236.502" y2="266.6582"/><polygon fill="#181818" points="119,256.6582,123,266.6582,127,256.6582,123,260.6582" style="stroke:#181818;stroke-width:1.0;"/><line style="stroke:#181818;stroke-width:1.0;" x1="123" x2="123" y1="301.752" y2="341.9082"/><polygon fill="#181818" points="119,331.9082,123,341.9082,127,331.9082,123,335.9082" style="stroke:#181818;stroke-width:1.0;"/><line style="stroke:#181818;stroke-width:1.0;" x1="123" x2="123" y1="153.7988" y2="201.4082"/><polygon fill="#181818" points="119,191.4082,123,201.4082,127,191.4082,123,195.4082" style="stroke:#181818;stroke-width:1.0;"/><line style="stroke:#181818;stroke-width:1.0;" x1="726.5" x2="726.5" y1="615.8926" y2="635.8926"/><polygon fill="#181818" points="722.5,625.8926,726.5,635.8926,730.5,625.8926,726.5,629.8926" style="stroke:#181818;stroke-width:1.0;"/><line style="stroke:#181818;stroke-width:1.0;" x1="657" x2="657" y1="849.1738" y2="869.1738"/><polygon fill="#181818" points="653,859.1738,657,869.1738,661,859.1738,657,863.1738" style="stroke:#181818;stroke-width:1.0;"/><line style="stroke:#181818;stroke-width:1.0;" x1="491.5" x2="469" y1="792.0801" y2="792.0801"/><line style="stroke:#181818;stroke-width:1.0;" x1="469" x2="469" y1="792.0801" y2="814.0801"/><polygon fill="#181818" points="465,804.0801,469,814.0801,473,804.0801,469,808.0801" style="stroke:#181818;stroke-width:1.0;"/><line style="stroke:#181818;stroke-width:1.0;" x1="634.5" x2="657" y1="792.0801" y2="792.0801"/><line style="stroke:#181818;stroke-width:1.0;" x1="657" x2="657" y1="792.0801" y2="814.0801"/><polygon fill="#181818" points="653,804.0801,657,814.0801,661,804.0801,657,808.0801" style="stroke:#181818;stroke-width:1.0;"/><line style="stroke:#181818;stroke-width:1.0;" x1="469" x2="469" y1="849.1738" y2="908.1738"/><line style="stroke:#181818;stroke-width:1.0;" x1="469" x2="1564.5" y1="908.1738" y2="908.1738"/><line style="stroke:#181818;stroke-width:1.0;" x1="1564.5" x2="1564.5" y1="908.1738" y2="950.7832"/><polygon fill="#181818" points="1560.5,940.7832,1564.5,950.7832,1568.5,940.7832,1564.5,944.7832" style="stroke:#181818;stroke-width:1.0;"/><line style="stroke:#181818;stroke-width:1.0;" x1="563" x2="563" y1="760.0801" y2="780.0801"/><polygon fill="#181818" points="559,770.0801,563,780.0801,567,770.0801,563,774.0801" style="stroke:#181818;stroke-width:1.0;"/><line style="stroke:#181818;stroke-width:1.0;" x1="890" x2="890" y1="760.0801" y2="780.0801"/><polygon fill="#181818" points="886,770.0801,890,780.0801,894,770.0801,890,774.0801" style="stroke:#181818;stroke-width:1.0;"/><line style="stroke:#181818;stroke-width:1.0;" x1="678.5" x2="563" y1="702.9863" y2="702.9863"/><line style="stroke:#181818;stroke-width:1.0;" x1="563" x2="563" y1="702.9863" y2="724.9863"/><polygon fill="#181818" points="559,714.9863,563,724.9863,567,714.9863,563,718.9863" style="stroke:#181818;stroke-width:1.0;"/><line style="stroke:#181818;stroke-width:1.0;" x1="774.5" x2="890" y1="702.9863" y2="702.9863"/><line style="stroke:#181818;stroke-width:1.0;" x1="890" x2="890" y1="702.9863" y2="724.9863"/><polygon fill="#181818" points="886,714.9863,890,724.9863,894,714.9863,890,718.9863" style="stroke:#181818;stroke-width:1.0;"/><line style="stroke:#181818;stroke-width:1.0;" x1="726.5" x2="726.5" y1="670.9863" y2="690.9863"/><polygon fill="#181818" points="722.5,680.9863,726.5,690.9863,730.5,680.9863,726.5,684.9863" style="stroke:#181818;stroke-width:1.0;"/><line style="stroke:#181818;stroke-width:1.0;" x1="1120" x2="1120" y1="615.8926" y2="635.8926"/><polygon fill="#181818" points="1116,625.8926,1120,635.8926,1124,625.8926,1120,629.8926" style="stroke:#181818;stroke-width:1.0;"/><line style="stroke:#181818;stroke-width:1.0;" x1="859.75" x2="726.5" y1="558.7988" y2="558.7988"/><line style="stroke:#181818;stroke-width:1.0;" x1="726.5" x2="726.5" y1="558.7988" y2="580.7988"/><polygon fill="#181818" points="722.5,570.7988,726.5,580.7988,730.5,570.7988,726.5,574.7988" style="stroke:#181818;stroke-width:1.0;"/><line style="stroke:#181818;stroke-width:1.0;" x1="986.75" x2="1120" y1="558.7988" y2="558.7988"/><line style="stroke:#181818;stroke-width:1.0;" x1="1120" x2="1120" y1="558.7988" y2="580.7988"/><polygon fill="#181818" points="1116,570.7988,1120,580.7988,1124,570.7988,1120,574.7988" style="stroke:#181818;stroke-width:1.0;"/><line style="stroke:#181818;stroke-width:1.0;" x1="923.25" x2="923.25" y1="526.7988" y2="546.7988"/><polygon fill="#181818" points="919.25,536.7988,923.25,546.7988,927.25,536.7988,923.25,540.7988" style="stroke:#181818;stroke-width:1.0;"/><line style="stroke:#181818;stroke-width:1.0;" x1="923.25" x2="923.25" y1="444.0957" y2="491.7051"/><polygon fill="#181818" points="919.25,481.7051,923.25,491.7051,927.25,481.7051,923.25,485.7051" style="stroke:#181818;stroke-width:1.0;"/><line style="stroke:#181818;stroke-width:1.0;" x1="1564.5" x2="1564.5" y1="985.877" y2="1005.877"/><polygon fill="#181818" points="1560.5,995.877,1564.5,1005.877,1568.5,995.877,1564.5,999.877" style="stroke:#181818;stroke-width:1.0;"/><line style="stroke:#181818;stroke-width:1.0;" x1="1358" x2="1358" y1="1130.0645" y2="1153.8691"/><polygon fill="#181818" points="1354,1143.8691,1358,1153.8691,1362,1143.8691,1358,1147.8691" style="stroke:#181818;stroke-width:1.0;"/><line style="stroke:#181818;stroke-width:1.0;" x1="1358" x2="1358" y1="1188.9629" y2="1212.7676"/><polygon fill="#181818" points="1354,1202.7676,1358,1212.7676,1362,1202.7676,1358,1206.7676" style="stroke:#181818;stroke-width:1.0;"/><line style="stroke:#181818;stroke-width:1.0;" x1="1358" x2="1358" y1="1247.8613" y2="1267.8613"/><polygon fill="#181818" points="1354,1257.8613,1358,1267.8613,1362,1257.8613,1358,1261.8613" style="stroke:#181818;stroke-width:1.0;"/><line style="stroke:#181818;stroke-width:1.0;" x1="1358" x2="1358" y1="1302.9551" y2="1322.9551"/><polygon fill="#181818" points="1354,1312.9551,1358,1322.9551,1362,1312.9551,1358,1316.9551" style="stroke:#181818;stroke-width:1.0;"/><line style="stroke:#181818;stroke-width:1.0;" x1="1771" x2="1771" y1="1130.0645" y2="1150.0645"/><polygon fill="#181818" points="1767,1140.0645,1771,1150.0645,1775,1140.0645,1771,1144.0645" style="stroke:#181818;stroke-width:1.0;"/><line style="stroke:#181818;stroke-width:1.0;" x1="1526.5" x2="1358" y1="1072.9707" y2="1072.9707"/><line style="stroke:#181818;stroke-width:1.0;" x1="1358" x2="1358" y1="1072.9707" y2="1094.9707"/><polygon fill="#181818" points="1354,1084.9707,1358,1094.9707,1362,1084.9707,1358,1088.9707" style="stroke:#181818;stroke-width:1.0;"/><line style="stroke:#181818;stroke-width:1.0;" x1="1602.5" x2="1771" y1="1072.9707" y2="1072.9707"/><line style="stroke:#181818;stroke-width:1.0;" x1="1771" x2="1771" y1="1072.9707" y2="1094.9707"/><polygon fill="#181818" points="1767,1084.9707,1771,1094.9707,1775,1084.9707,1771,1088.9707" style="stroke:#181818;stroke-width:1.0;"/><line style="stroke:#181818;stroke-width:1.0;" x1="1358" x2="1358" y1="1358.0488" y2="1363.0488"/><line style="stroke:#181818;stroke-width:1.0;" x1="1358" x2="1564.5" y1="1363.0488" y2="1363.0488"/><line style="stroke:#181818;stroke-width:1.0;" x1="1564.5" x2="1564.5" y1="1363.0488" y2="1417.6582"/><polygon fill="#181818" points="1560.5,1407.6582,1564.5,1417.6582,1568.5,1407.6582,1564.5,1411.6582" style="stroke:#181818;stroke-width:1.0;"/><line style="stroke:#181818;stroke-width:1.0;" x1="1564.5" x2="1564.5" y1="1040.9707" y2="1060.9707"/><polygon fill="#181818" points="1560.5,1050.9707,1564.5,1060.9707,1568.5,1050.9707,1564.5,1054.9707" style="stroke:#181818;stroke-width:1.0;"/><line style="stroke:#181818;stroke-width:1.0;" x1="1564.5" x2="1564.5" y1="1496.752" y2="1516.752"/><polygon fill="#181818" points="1560.5,1506.752,1564.5,1516.752,1568.5,1506.752,1564.5,1510.752" style="stroke:#181818;stroke-width:1.0;"/><line style="stroke:#181818;stroke-width:1.0;" x1="1564.5" x2="1564.5" y1="1551.8457" y2="1571.8457"/><polygon fill="#181818" points="1560.5,1561.8457,1564.5,1571.8457,1568.5,1561.8457,1564.5,1565.8457" style="stroke:#181818;stroke-width:1.0;"/><line style="stroke:#181818;stroke-width:1.0;" x1="1564.5" x2="1564.5" y1="1606.9395" y2="1628.9199"/><polygon fill="#181818" points="1560.5,1618.9199,1564.5,1628.9199,1568.5,1618.9199,1564.5,1622.9199" style="stroke:#181818;stroke-width:1.0;"/><line style="stroke:#181818;stroke-width:1.0;" x1="1564.5" x2="1564.5" y1="1664.0137" y2="1702.0215"/><polygon fill="#181818" points="1560.5,1692.0215,1564.5,1702.0215,1568.5,1692.0215,1564.5,1696.0215" style="stroke:#181818;stroke-width:1.0;"/><line style="stroke:#181818;stroke-width:1.0;" x1="1564.5" x2="1564.5" y1="1737.1152" y2="1757.1152"/><polygon fill="#181818" points="1560.5,1747.1152,1564.5,1757.1152,1568.5,1747.1152,1564.5,1751.1152" style="stroke:#181818;stroke-width:1.0;"/><line style="stroke:#181818;stroke-width:1.0;" x1="1466.5" x2="1466.5" y1="1881.3027" y2="1901.3027"/><polygon fill="#181818" points="1462.5,1891.3027,1466.5,1901.3027,1470.5,1891.3027,1466.5,1895.3027" style="stroke:#181818;stroke-width:1.0;"/><line style="stroke:#181818;stroke-width:1.0;" x1="1524" x2="1466.5" y1="1824.209" y2="1824.209"/><line style="stroke:#181818;stroke-width:1.0;" x1="1466.5" x2="1466.5" y1="1824.209" y2="1846.209"/><polygon fill="#181818" points="1462.5,1836.209,1466.5,1846.209,1470.5,1836.209,1466.5,1840.209" style="stroke:#181818;stroke-width:1.0;"/><line style="stroke:#181818;stroke-width:1.0;" x1="1605" x2="1662.5" y1="1824.209" y2="1824.209"/><line style="stroke:#181818;stroke-width:1.0;" x1="1662.5" x2="1662.5" y1="1824.209" y2="1846.209"/><polygon fill="#181818" points="1658.5,1836.209,1662.5,1846.209,1666.5,1836.209,1662.5,1840.209" style="stroke:#181818;stroke-width:1.0;"/><line style="stroke:#181818;stroke-width:1.0;" x1="1662.5" x2="1662.5" y1="1881.3027" y2="1928.3027"/><line style="stroke:#181818;stroke-width:1.0;" x1="1662.5" x2="1564.5" y1="1928.3027" y2="1928.3027"/><line style="stroke:#181818;stroke-width:1.0;" x1="1564.5" x2="1564.5" y1="1928.3027" y2="1943.3027"/><polygon fill="#181818" points="1560.5,1933.3027,1564.5,1943.3027,1568.5,1933.3027,1564.5,1937.3027" style="stroke:#181818;stroke-width:1.0;"/><line style="stroke:#181818;stroke-width:1.0;" x1="1564.5" x2="1564.5" y1="1792.209" y2="1812.209"/><polygon fill="#181818" points="1560.5,1802.209,1564.5,1812.209,1568.5,1802.209,1564.5,1806.209" style="stroke:#181818;stroke-width:1.0;"/><line style="stroke:#181818;stroke-width:1.0;" x1="1564.5" x2="1564.5" y1="1441.6582" y2="1461.6582"/><polygon fill="#181818" points="1560.5,1451.6582,1564.5,1461.6582,1568.5,1451.6582,1564.5,1455.6582" style="stroke:#181818;stroke-width:1.0;"/><line style="stroke:#181818;stroke-width:1.0;" x1="1628" x2="1945" y1="1955.3027" y2="1955.3027"/><polygon fill="#181818" points="1941,1695.9941,1945,1685.9941,1949,1695.9941,1945,1691.9941" style="stroke:#181818;stroke-width:1.0;"/><line style="stroke:#181818;stroke-width:1.0;" x1="1945" x2="1945" y1="1429.6582" y2="1955.3027"/><line style="stroke:#181818;stroke-width:1.0;" x1="1945" x2="1576.5" y1="1429.6582" y2="1429.6582"/><polygon fill="#181818" points="1586.5,1425.6582,1576.5,1429.6582,1586.5,1433.6582,1582.5,1429.6582" style="stroke:#181818;stroke-width:1.0;"/><line style="stroke:#181818;stroke-width:1.0;" x1="2064" x2="2064" y1="2088.0059" y2="2108.0059"/><polygon fill="#181818" points="2060,2098.0059,2064,2108.0059,2068,2098.0059,2064,2102.0059" style="stroke:#181818;stroke-width:1.0;"/><line style="stroke:#181818;stroke-width:1.0;" x1="2214.5" x2="2214.5" y1="2088.0059" y2="2108.0059"/><polygon fill="#181818" points="2210.5,2098.0059,2214.5,2108.0059,2218.5,2098.0059,2214.5,2102.0059" style="stroke:#181818;stroke-width:1.0;"/><line style="stroke:#181818;stroke-width:1.0;" x1="2373" x2="2373" y1="2088.0059" y2="2108.0059"/><polygon fill="#181818" points="2369,2098.0059,2373,2108.0059,2377,2098.0059,2373,2102.0059" style="stroke:#181818;stroke-width:1.0;"/><line style="stroke:#181818;stroke-width:1.0;" x1="2497" x2="2497" y1="2088.0059" y2="2108.0059"/><polygon fill="#181818" points="2493,2098.0059,2497,2108.0059,2501,2098.0059,2497,2102.0059" style="stroke:#181818;stroke-width:1.0;"/><line style="stroke:#181818;stroke-width:1.0;" x1="2064" x2="2064" y1="2143.0996" y2="2163.0996"/><polygon fill="#181818" points="2060,2153.0996,2064,2163.0996,2068,2153.0996,2064,2157.0996" style="stroke:#181818;stroke-width:1.0;"/><line style="stroke:#181818;stroke-width:1.0;" x1="2214.5" x2="2214.5" y1="2143.0996" y2="2163.0996"/><polygon fill="#181818" points="2210.5,2153.0996,2214.5,2163.0996,2218.5,2153.0996,2214.5,2157.0996" style="stroke:#181818;stroke-width:1.0;"/><line style="stroke:#181818;stroke-width:1.0;" x1="2373" x2="2373" y1="2143.0996" y2="2163.0996"/><polygon fill="#181818" points="2369,2153.0996,2373,2163.0996,2377,2153.0996,2373,2157.0996" style="stroke:#181818;stroke-width:1.0;"/><line style="stroke:#181818;stroke-width:1.0;" x1="2497" x2="2497" y1="2143.0996" y2="2163.0996"/><polygon fill="#181818" points="2493,2153.0996,2497,2163.0996,2501,2153.0996,2497,2157.0996" style="stroke:#181818;stroke-width:1.0;"/><line style="stroke:#181818;stroke-width:1.0;" x1="2271.5" x2="2271.5" y1="2062.0059" y2="2082.0059"/><polygon fill="#181818" points="2267.5,2072.0059,2271.5,2082.0059,2275.5,2072.0059,2271.5,2076.0059" style="stroke:#181818;stroke-width:1.0;"/><line style="stroke:#181818;stroke-width:1.0;" x1="2271.5" x2="2271.5" y1="2169.0996" y2="2189.0996"/><polygon fill="#181818" points="2267.5,2179.0996,2271.5,2189.0996,2275.5,2179.0996,2271.5,2183.0996" style="stroke:#181818;stroke-width:1.0;"/><line style="stroke:#181818;stroke-width:1.0;" x1="2271.5" x2="2271.5" y1="2224.1934" y2="2244.1934"/><polygon fill="#181818" points="2267.5,2234.1934,2271.5,2244.1934,2275.5,2234.1934,2271.5,2238.1934" style="stroke:#181818;stroke-width:1.0;"/><line style="stroke:#181818;stroke-width:1.0;" x1="2271.5" x2="2271.5" y1="2279.2871" y2="2311.2871"/><polygon fill="#181818" points="2267.5,2301.2871,2271.5,2311.2871,2275.5,2301.2871,2271.5,2305.2871" style="stroke:#181818;stroke-width:1.0;"/><line style="stroke:#181818;stroke-width:1.0;" x1="123" x2="123" y1="377.002" y2="394.002"/><line style="stroke:#181818;stroke-width:1.0;" x1="123" x2="923.25" y1="394.002" y2="394.002"/><line style="stroke:#181818;stroke-width:1.0;" x1="923.25" x2="923.25" y1="394.002" y2="409.002"/><polygon fill="#181818" points="919.25,399.002,923.25,409.002,927.25,399.002,923.25,403.002" style="stroke:#181818;stroke-width:1.0;"/><line style="stroke:#181818;stroke-width:1.0;" x1="1564.5" x2="1564.5" y1="1967.3027" y2="1984.3027"/><line style="stroke:#181818;stroke-width:1.0;" x1="1564.5" x2="2271.5" y1="1984.3027" y2="1984.3027"/><line style="stroke:#181818;stroke-width:1.0;" x1="2271.5" x2="2271.5" y1="1984.3027" y2="2026.9121"/><polygon fill="#181818" points="2267.5,2016.9121,2271.5,2026.9121,2275.5,2016.9121,2271.5,2020.9121" style="stroke:#181818;stroke-width:1.0;"/><text fill="#000000" font-family="sans-serif" font-size="18" lengthAdjust="spacing" textLength="140" x="133" y="69.75">Administrador RH</text><text fill="#000000" font-family="sans-serif" font-size="18" lengthAdjust="spacing" textLength="80" x="776" y="69.75">Empleado</text><text fill="#000000" font-family="sans-serif" font-size="18" lengthAdjust="spacing" textLength="224" x="1491" y="69.75">Administrador de Pr&#233;stamos</text><text fill="#000000" font-family="sans-serif" font-size="18" lengthAdjust="spacing" textLength="180" x="2180.5" y="69.75">Consultor de Reportes</text><!--SRC=[TLLDRnit4BthLqo371mqJkGSL42gMsnbDJPWouAK6cXl57SaCQN8BSbLqjJv7Jdds4CEHQu12bH_hCEFNUskbPkqV7mpysRcyPiSLq8Xp2VZLzdqvVK4k6JMzdfEE8bm8TZQi2s3765cD4UhhVyznRNcGiCfB8HrM07sVrl7jfgktsVvLYWwCopN1kQNzpqwCgutV8dM2QsOWScsa4Z75lw4MKcVjHtr2W893u170Rd_h3ntZNq4V_K0XdDS1t83giIT1apd8t-OMR7s0Of02fG75qpw8wKTWX7hZQC_07TCYfo0EQFOmBKdeL_3S7WAKxrT6an_VaQ-2MKAjJQaG_eS4mSMGkR-Aweyn0cPS5TIZ7SKOqFvQaDvU8wYAlSzILNLTjyRBhIaN4ceWvWjIMB2l59bZd-KmWfNotA7Hgm4f_jCER7UVy6SvV33EPm1s_yJr14hEFdltt7fWpPHFpu1jq459ulzfoUXkE6OILvA8hCbofoA3DMCuk4Xr5OhKk3xSnZ05YtQ18-u6EucG7RxZvI-VXYfHLVKO-G3YfsNAO8YrqAe8vXZfAqviL7QCg_OK5g4awbkeQd7lbcdy2i39v0semwL8ergE7MmgBXKBbQzOwnDpgW2lkL8lPFxJrlXiAAhoIggDb6J9ckqLYXRacoKQKMLY2BD-mURsDhJ- -PiPONHoyDirQXwutR2TdKSJdPCblILQuf7Zg3G7eOiCfeZatN330-tIDPiDh_zARku7NM6hc1hJGD51TBECE2ieCL8qzVPOu2P1oS8d2UbdyDCidSwGIQlX_3uHVzflz-daxCN17jyzdGm63mRV5SfNoskhuoANqhaQ63bjG- -bwFb9McTfe3CJA4VBiuatMQ6BD5lDoLZwtAsIq48sdVcLmYoyQkhkr1ifyDDJSYEBxFVQb6wFVsAIMPBhMWZRg9cc4p1O87CzJhh46sJ-HifqzkbyzM0PM7NQQ2e79CEiqB6vVGwhyHhtUt8eM_2twJPeOoaDuIlTEogWft3eXKHzX-W_wn_bd2nbLml_VmIkDNfRskQX9w6ic893uXFMvUFzBnXrv72br0SdBYZOOv48p6W6aesV6-H4kaVzRm7ip6-dOwlVxcgsjvqXQwjtFYgVBlIvSDO7ImaTXxUR0GbwKsVf1IgZ6raAZYni2adRnK4iALqqIRcM6ZZi6qISU0R3r3498zO82qCZw-x4qLO1XCXFhELDhz73I-RZs7pxVOGeEI4Yi2BA75OlbOZki3PqLUZYxeMKQrrA2EChf-0b5YzpesSXvEt_ZSpp- -4JSCHdktGcly1]--></g></svg>