<?xml version="1.0" encoding="us-ascii" standalone="no"?><svg xmlns="http://www.w3.org/2000/svg" xmlns:xlink="http://www.w3.org/1999/xlink" contentStyleType="text/css" height="1482px" preserveAspectRatio="none" style="width:1543px;height:1482px;background:#FFFFFF;" version="1.1" viewBox="0 0 1543 1482" width="1543px" zoomAndPan="magnify"><defs/><g><text fill="#000000" font-family="sans-serif" font-size="14" font-weight="bold" lengthAdjust="spacing" textLength="389" x="570.25" y="24.5332">Diagrama Entidad-Relaci&#243;n - Base de Datos PostgreSQL</text><!--class puestos--><g id="elem_puestos"><rect codeLine="13" fill="#F1F1F1" height="144.0469" id="puestos" rx="2.5" ry="2.5" style="stroke:#181818;stroke-width:0.5;" width="243" x="65" y="229.6094"/><ellipse cx="157.25" cy="245.6094" fill="#ADD1B2" rx="11" ry="11" style="stroke:#181818;stroke-width:1.0;"/><path d="M156.1094,246.4063 L156.1094,248.9063 L160.4375,248.9063 L160.4375,247.9844 Q160.4375,247.375 160.6719,247.1094 Q160.9219,246.8438 161.2969,246.8438 Q161.6719,246.8438 161.9063,247.1094 Q162.1406,247.375 162.1406,247.9844 L162.1406,250.6094 L154.1406,250.6094 Q153.5156,250.6094 153.25,250.375 Q153,250.1406 153,249.75 Q153,249.375 153.2656,249.1406 Q153.5313,248.9063 154.1406,248.9063 L154.4063,248.9063 L154.4063,242.25 L154.1406,242.25 Q153.5156,242.25 153.25,242.0156 Q153,241.7813 153,241.3906 Q153,241.0156 153.25,240.7813 Q153.5156,240.5469 154.1406,240.5469 L161.7656,240.5469 L161.7656,243.1406 Q161.7656,243.75 161.5313,244.0156 Q161.3125,244.2656 160.9219,244.2656 Q160.5469,244.2656 160.3125,244.0156 Q160.0781,243.75 160.0781,243.1406 L160.0781,242.25 L156.1094,242.25 L156.1094,244.7031 L157.5938,244.7031 Q157.5938,244.0469 157.7188,243.8594 Q157.9844,243.4531 158.4531,243.4531 Q158.8281,243.4531 159.0625,243.7188 Q159.2969,243.9688 159.2969,244.5781 L159.2969,246.5469 Q159.2969,247.0938 159.1719,247.2813 Q158.9063,247.6719 158.4531,247.6719 Q157.9844,247.6719 157.7188,247.2656 Q157.5938,247.0781 157.5938,246.4063 L156.1094,246.4063 Z " fill="#000000"/><text fill="#000000" font-family="sans-serif" font-size="14" lengthAdjust="spacing" textLength="50" x="177.75" y="251.3379">puestos</text><line style="stroke:#181818;stroke-width:0.5;" x1="66" x2="307" y1="261.6094" y2="261.6094"/><text fill="#FF0000" font-family="sans-serif" font-size="14" font-weight="bold" lengthAdjust="spacing" textLength="13" x="71" y="280.1426">id</text><text fill="#000000" font-family="sans-serif" font-size="14" lengthAdjust="spacing" textLength="56" x="88" y="280.1426">: SERIAL</text><line style="stroke:#181818;stroke-width:1.0;" x1="66" x2="307" y1="287.2188" y2="287.2188"/><text fill="#000000" font-family="sans-serif" font-size="14" lengthAdjust="spacing" textLength="231" x="71" y="305.752">nombre : VARCHAR(100) NOT NULL</text><text fill="#000000" font-family="sans-serif" font-size="14" lengthAdjust="spacing" textLength="224" x="71" y="323.3613">sueldo : NUMERIC(10,2) NOT NULL</text><line style="stroke:#181818;stroke-width:1.0;" x1="66" x2="307" y1="330.4375" y2="330.4375"/><text fill="#000000" font-family="sans-serif" font-size="14" lengthAdjust="spacing" textLength="108" x="71" y="348.9707">UNIQUE(nombre)</text><text fill="#000000" font-family="sans-serif" font-size="14" lengthAdjust="spacing" textLength="123" x="71" y="366.5801">CHECK(sueldo &gt; 0)</text></g><!--class empleados--><g id="elem_empleados"><rect codeLine="23" fill="#F1F1F1" height="144.0469" id="empleados" rx="2.5" ry="2.5" style="stroke:#181818;stroke-width:0.5;" width="294" x="579.5" y="229.6094"/><ellipse cx="687.75" cy="245.6094" fill="#ADD1B2" rx="11" ry="11" style="stroke:#181818;stroke-width:1.0;"/><path d="M686.6094,246.4063 L686.6094,248.9063 L690.9375,248.9063 L690.9375,247.9844 Q690.9375,247.375 691.1719,247.1094 Q691.4219,246.8438 691.7969,246.8438 Q692.1719,246.8438 692.4063,247.1094 Q692.6406,247.375 692.6406,247.9844 L692.6406,250.6094 L684.6406,250.6094 Q684.0156,250.6094 683.75,250.375 Q683.5,250.1406 683.5,249.75 Q683.5,249.375 683.7656,249.1406 Q684.0313,248.9063 684.6406,248.9063 L684.9063,248.9063 L684.9063,242.25 L684.6406,242.25 Q684.0156,242.25 683.75,242.0156 Q683.5,241.7813 683.5,241.3906 Q683.5,241.0156 683.75,240.7813 Q684.0156,240.5469 684.6406,240.5469 L692.2656,240.5469 L692.2656,243.1406 Q692.2656,243.75 692.0313,244.0156 Q691.8125,244.2656 691.4219,244.2656 Q691.0469,244.2656 690.8125,244.0156 Q690.5781,243.75 690.5781,243.1406 L690.5781,242.25 L686.6094,242.25 L686.6094,244.7031 L688.0938,244.7031 Q688.0938,244.0469 688.2188,243.8594 Q688.4844,243.4531 688.9531,243.4531 Q689.3281,243.4531 689.5625,243.7188 Q689.7969,243.9688 689.7969,244.5781 L689.7969,246.5469 Q689.7969,247.0938 689.6719,247.2813 Q689.4063,247.6719 688.9531,247.6719 Q688.4844,247.6719 688.2188,247.2656 Q688.0938,247.0781 688.0938,246.4063 L686.6094,246.4063 Z " fill="#000000"/><text fill="#000000" font-family="sans-serif" font-size="14" lengthAdjust="spacing" textLength="69" x="708.25" y="251.3379">empleados</text><line style="stroke:#181818;stroke-width:0.5;" x1="580.5" x2="872.5" y1="261.6094" y2="261.6094"/><text fill="#FF0000" font-family="sans-serif" font-size="14" font-weight="bold" lengthAdjust="spacing" textLength="13" x="585.5" y="280.1426">id</text><text fill="#000000" font-family="sans-serif" font-size="14" lengthAdjust="spacing" textLength="56" x="602.5" y="280.1426">: SERIAL</text><line style="stroke:#181818;stroke-width:1.0;" x1="580.5" x2="872.5" y1="287.2188" y2="287.2188"/><text fill="#000000" font-family="sans-serif" font-size="14" lengthAdjust="spacing" textLength="231" x="585.5" y="305.752">nombre : VARCHAR(200) NOT NULL</text><text fill="#000000" font-family="sans-serif" font-size="14" lengthAdjust="spacing" textLength="210" x="585.5" y="323.3613">fecha_ingreso : DATE NOT NULL</text><text fill="#000000" font-family="sans-serif" font-size="14" lengthAdjust="spacing" textLength="223" x="585.5" y="340.9707">activo : BOOLEAN DEFAULT TRUE</text><line style="stroke:#181818;stroke-width:1.0;" x1="580.5" x2="872.5" y1="348.0469" y2="348.0469"/><text fill="#000000" font-family="sans-serif" font-size="14" lengthAdjust="spacing" textLength="282" x="585.5" y="366.5801">CHECK(fecha_ingreso &lt;= CURRENT_DATE)</text></g><!--class historial--><g id="elem_historial"><rect codeLine="33" fill="#F1F1F1" height="214.4844" id="historial" rx="2.5" ry="2.5" style="stroke:#181818;stroke-width:0.5;" width="359" x="7" y="531.1094"/><ellipse cx="128.75" cy="547.1094" fill="#ADD1B2" rx="11" ry="11" style="stroke:#181818;stroke-width:1.0;"/><path d="M127.6094,547.9063 L127.6094,550.4063 L131.9375,550.4063 L131.9375,549.4844 Q131.9375,548.875 132.1719,548.6094 Q132.4219,548.3438 132.7969,548.3438 Q133.1719,548.3438 133.4063,548.6094 Q133.6406,548.875 133.6406,549.4844 L133.6406,552.1094 L125.6406,552.1094 Q125.0156,552.1094 124.75,551.875 Q124.5,551.6406 124.5,551.25 Q124.5,550.875 124.7656,550.6406 Q125.0313,550.4063 125.6406,550.4063 L125.9063,550.4063 L125.9063,543.75 L125.6406,543.75 Q125.0156,543.75 124.75,543.5156 Q124.5,543.2813 124.5,542.8906 Q124.5,542.5156 124.75,542.2813 Q125.0156,542.0469 125.6406,542.0469 L133.2656,542.0469 L133.2656,544.6406 Q133.2656,545.25 133.0313,545.5156 Q132.8125,545.7656 132.4219,545.7656 Q132.0469,545.7656 131.8125,545.5156 Q131.5781,545.25 131.5781,544.6406 L131.5781,543.75 L127.6094,543.75 L127.6094,546.2031 L129.0938,546.2031 Q129.0938,545.5469 129.2188,545.3594 Q129.4844,544.9531 129.9531,544.9531 Q130.3281,544.9531 130.5625,545.2188 Q130.7969,545.4688 130.7969,546.0781 L130.7969,548.0469 Q130.7969,548.5938 130.6719,548.7813 Q130.4063,549.1719 129.9531,549.1719 Q129.4844,549.1719 129.2188,548.7656 Q129.0938,548.5781 129.0938,547.9063 L127.6094,547.9063 Z " fill="#000000"/><text fill="#000000" font-family="sans-serif" font-size="14" lengthAdjust="spacing" textLength="107" x="149.25" y="552.8379">historial_puestos</text><line style="stroke:#181818;stroke-width:0.5;" x1="8" x2="365" y1="563.1094" y2="563.1094"/><text fill="#FF0000" font-family="sans-serif" font-size="14" font-weight="bold" lengthAdjust="spacing" textLength="13" x="13" y="581.6426">id</text><text fill="#000000" font-family="sans-serif" font-size="14" lengthAdjust="spacing" textLength="56" x="30" y="581.6426">: SERIAL</text><line style="stroke:#181818;stroke-width:1.0;" x1="8" x2="365" y1="588.7188" y2="588.7188"/><text fill="#0000FF" font-family="sans-serif" font-size="14" lengthAdjust="spacing" textLength="81" x="13" y="607.252">empleado_id</text><text fill="#000000" font-family="sans-serif" font-size="14" lengthAdjust="spacing" textLength="139" x="98" y="607.252">: INTEGER NOT NULL</text><text fill="#0000FF" font-family="sans-serif" font-size="14" lengthAdjust="spacing" textLength="62" x="13" y="624.8613">puesto_id</text><text fill="#000000" font-family="sans-serif" font-size="14" lengthAdjust="spacing" textLength="139" x="79" y="624.8613">: INTEGER NOT NULL</text><text fill="#000000" font-family="sans-serif" font-size="14" lengthAdjust="spacing" textLength="195" x="13" y="642.4707">fecha_inicio : DATE NOT NULL</text><text fill="#000000" font-family="sans-serif" font-size="14" lengthAdjust="spacing" textLength="145" x="13" y="660.0801">fecha_fin : DATE NULL</text><line style="stroke:#181818;stroke-width:1.0;" x1="8" x2="365" y1="667.1563" y2="667.1563"/><text fill="#000000" font-family="sans-serif" font-size="14" lengthAdjust="spacing" textLength="128" x="13" y="685.6895">FK &#8594; empleados(id)</text><text fill="#000000" font-family="sans-serif" font-size="14" lengthAdjust="spacing" textLength="109" x="13" y="703.2988">FK &#8594; puestos(id)</text><text fill="#000000" font-family="sans-serif" font-size="14" lengthAdjust="spacing" textLength="347" x="13" y="720.9082">CHECK(fecha_fin IS NULL OR fecha_fin &gt; fecha_inicio)</text><text fill="#000000" font-family="sans-serif" font-size="14" lengthAdjust="spacing" textLength="311" x="13" y="738.5176">UNIQUE(empleado_id) WHERE fecha_fin IS NULL</text></g><!--class prestamos--><g id="elem_prestamos"><rect codeLine="47" fill="#F1F1F1" height="372.9688" id="prestamos" rx="2.5" ry="2.5" style="stroke:#181818;stroke-width:0.5;" width="566" x="679.5" y="451.6094"/><ellipse cx="925.25" cy="467.6094" fill="#ADD1B2" rx="11" ry="11" style="stroke:#181818;stroke-width:1.0;"/><path d="M924.1094,468.4063 L924.1094,470.9063 L928.4375,470.9063 L928.4375,469.9844 Q928.4375,469.375 928.6719,469.1094 Q928.9219,468.8438 929.2969,468.8438 Q929.6719,468.8438 929.9063,469.1094 Q930.1406,469.375 930.1406,469.9844 L930.1406,472.6094 L922.1406,472.6094 Q921.5156,472.6094 921.25,472.375 Q921,472.1406 921,471.75 Q921,471.375 921.2656,471.1406 Q921.5313,470.9063 922.1406,470.9063 L922.4063,470.9063 L922.4063,464.25 L922.1406,464.25 Q921.5156,464.25 921.25,464.0156 Q921,463.7813 921,463.3906 Q921,463.0156 921.25,462.7813 Q921.5156,462.5469 922.1406,462.5469 L929.7656,462.5469 L929.7656,465.1406 Q929.7656,465.75 929.5313,466.0156 Q929.3125,466.2656 928.9219,466.2656 Q928.5469,466.2656 928.3125,466.0156 Q928.0781,465.75 928.0781,465.1406 L928.0781,464.25 L924.1094,464.25 L924.1094,466.7031 L925.5938,466.7031 Q925.5938,466.0469 925.7188,465.8594 Q925.9844,465.4531 926.4531,465.4531 Q926.8281,465.4531 927.0625,465.7188 Q927.2969,465.9688 927.2969,466.5781 L927.2969,468.5469 Q927.2969,469.0938 927.1719,469.2813 Q926.9063,469.6719 926.4531,469.6719 Q925.9844,469.6719 925.7188,469.2656 Q925.5938,469.0781 925.5938,468.4063 L924.1094,468.4063 Z " fill="#000000"/><text fill="#000000" font-family="sans-serif" font-size="14" lengthAdjust="spacing" textLength="66" x="945.75" y="473.3379">prestamos</text><line style="stroke:#181818;stroke-width:0.5;" x1="680.5" x2="1244.5" y1="483.6094" y2="483.6094"/><text fill="#FF0000" font-family="sans-serif" font-size="14" font-weight="bold" lengthAdjust="spacing" textLength="13" x="685.5" y="502.1426">id</text><text fill="#000000" font-family="sans-serif" font-size="14" lengthAdjust="spacing" textLength="56" x="702.5" y="502.1426">: SERIAL</text><line style="stroke:#181818;stroke-width:1.0;" x1="680.5" x2="1244.5" y1="509.2188" y2="509.2188"/><text fill="#0000FF" font-family="sans-serif" font-size="14" lengthAdjust="spacing" textLength="81" x="685.5" y="527.752">empleado_id</text><text fill="#000000" font-family="sans-serif" font-size="14" lengthAdjust="spacing" textLength="139" x="770.5" y="527.752">: INTEGER NOT NULL</text><text fill="#000000" font-family="sans-serif" font-size="14" lengthAdjust="spacing" textLength="221" x="685.5" y="545.3613">monto : NUMERIC(12,2) NOT NULL</text><text fill="#000000" font-family="sans-serif" font-size="14" lengthAdjust="spacing" textLength="225" x="685.5" y="562.9707">plazo_meses : INTEGER NOT NULL</text><text fill="#000000" font-family="sans-serif" font-size="14" lengthAdjust="spacing" textLength="214" x="685.5" y="580.5801">fecha_solicitud : DATE NOT NULL</text><text fill="#000000" font-family="sans-serif" font-size="14" lengthAdjust="spacing" textLength="201" x="685.5" y="598.1895">fecha_aprobacion : DATE NULL</text><text fill="#000000" font-family="sans-serif" font-size="14" lengthAdjust="spacing" textLength="333" x="685.5" y="615.7988">tasa_interes_mensual : NUMERIC(5,2) DEFAULT 1.0</text><text fill="#000000" font-family="sans-serif" font-size="14" lengthAdjust="spacing" textLength="289" x="685.5" y="633.4082">pago_fijo_capital : NUMERIC(12,2) NOT NULL</text><text fill="#000000" font-family="sans-serif" font-size="14" lengthAdjust="spacing" textLength="236" x="685.5" y="651.0176">fecha_inicio_descuento : DATE NULL</text><text fill="#000000" font-family="sans-serif" font-size="14" lengthAdjust="spacing" textLength="219" x="685.5" y="668.627">fecha_fin_descuento : DATE NULL</text><text fill="#000000" font-family="sans-serif" font-size="14" lengthAdjust="spacing" textLength="262" x="685.5" y="686.2363">saldo_actual : NUMERIC(12,2) NOT NULL</text><text fill="#000000" font-family="sans-serif" font-size="14" lengthAdjust="spacing" textLength="218" x="685.5" y="703.8457">estado : VARCHAR(20) NOT NULL</text><line style="stroke:#181818;stroke-width:1.0;" x1="680.5" x2="1244.5" y1="710.9219" y2="710.9219"/><text fill="#000000" font-family="sans-serif" font-size="14" lengthAdjust="spacing" textLength="128" x="685.5" y="729.4551">FK &#8594; empleados(id)</text><text fill="#000000" font-family="sans-serif" font-size="14" lengthAdjust="spacing" textLength="120" x="685.5" y="747.0645">CHECK(monto &gt; 0)</text><text fill="#000000" font-family="sans-serif" font-size="14" lengthAdjust="spacing" textLength="321" x="685.5" y="764.6738">CHECK(plazo_meses &gt; 0 AND plazo_meses &lt;= 24)</text><text fill="#000000" font-family="sans-serif" font-size="14" lengthAdjust="spacing" textLength="169" x="685.5" y="782.2832">CHECK(saldo_actual &gt;= 0)</text><text fill="#000000" font-family="sans-serif" font-size="14" lengthAdjust="spacing" textLength="554" x="685.5" y="799.8926">CHECK(estado IN ('SOLICITADO','APROBADO','ACTIVO','CONCLUIDO','RECHAZADO'))</text><text fill="#000000" font-family="sans-serif" font-size="14" lengthAdjust="spacing" textLength="486" x="685.5" y="817.502">CHECK(fecha_aprobacion IS NULL OR fecha_aprobacion &gt;= fecha_solicitud)</text></g><!--class abonos--><g id="elem_abonos"><rect codeLine="70" fill="#F1F1F1" height="337.75" id="abonos" rx="2.5" ry="2.5" style="stroke:#181818;stroke-width:0.5;" width="378" x="773.5" y="902.6094"/><ellipse cx="934.75" cy="918.6094" fill="#ADD1B2" rx="11" ry="11" style="stroke:#181818;stroke-width:1.0;"/><path d="M933.6094,919.4063 L933.6094,921.9063 L937.9375,921.9063 L937.9375,920.9844 Q937.9375,920.375 938.1719,920.1094 Q938.4219,919.8438 938.7969,919.8438 Q939.1719,919.8438 939.4063,920.1094 Q939.6406,920.375 939.6406,920.9844 L939.6406,923.6094 L931.6406,923.6094 Q931.0156,923.6094 930.75,923.375 Q930.5,923.1406 930.5,922.75 Q930.5,922.375 930.7656,922.1406 Q931.0313,921.9063 931.6406,921.9063 L931.9063,921.9063 L931.9063,915.25 L931.6406,915.25 Q931.0156,915.25 930.75,915.0156 Q930.5,914.7813 930.5,914.3906 Q930.5,914.0156 930.75,913.7813 Q931.0156,913.5469 931.6406,913.5469 L939.2656,913.5469 L939.2656,916.1406 Q939.2656,916.75 939.0313,917.0156 Q938.8125,917.2656 938.4219,917.2656 Q938.0469,917.2656 937.8125,917.0156 Q937.5781,916.75 937.5781,916.1406 L937.5781,915.25 L933.6094,915.25 L933.6094,917.7031 L935.0938,917.7031 Q935.0938,917.0469 935.2188,916.8594 Q935.4844,916.4531 935.9531,916.4531 Q936.3281,916.4531 936.5625,916.7188 Q936.7969,916.9688 936.7969,917.5781 L936.7969,919.5469 Q936.7969,920.0938 936.6719,920.2813 Q936.4063,920.6719 935.9531,920.6719 Q935.4844,920.6719 935.2188,920.2656 Q935.0938,920.0781 935.0938,919.4063 L933.6094,919.4063 Z " fill="#000000"/><text fill="#000000" font-family="sans-serif" font-size="14" lengthAdjust="spacing" textLength="47" x="955.25" y="924.3379">abonos</text><line style="stroke:#181818;stroke-width:0.5;" x1="774.5" x2="1150.5" y1="934.6094" y2="934.6094"/><text fill="#FF0000" font-family="sans-serif" font-size="14" font-weight="bold" lengthAdjust="spacing" textLength="13" x="779.5" y="953.1426">id</text><text fill="#000000" font-family="sans-serif" font-size="14" lengthAdjust="spacing" textLength="56" x="796.5" y="953.1426">: SERIAL</text><line style="stroke:#181818;stroke-width:1.0;" x1="774.5" x2="1150.5" y1="960.2188" y2="960.2188"/><text fill="#0000FF" font-family="sans-serif" font-size="14" lengthAdjust="spacing" textLength="78" x="779.5" y="978.752">prestamo_id</text><text fill="#000000" font-family="sans-serif" font-size="14" lengthAdjust="spacing" textLength="139" x="861.5" y="978.752">: INTEGER NOT NULL</text><text fill="#000000" font-family="sans-serif" font-size="14" lengthAdjust="spacing" textLength="239" x="779.5" y="996.3613">numero_abono : INTEGER NOT NULL</text><text fill="#000000" font-family="sans-serif" font-size="14" lengthAdjust="spacing" textLength="155" x="779.5" y="1013.9707">fecha : DATE NOT NULL</text><text fill="#000000" font-family="sans-serif" font-size="14" lengthAdjust="spacing" textLength="270" x="779.5" y="1031.5801">monto_capital : NUMERIC(12,2) NOT NULL</text><text fill="#000000" font-family="sans-serif" font-size="14" lengthAdjust="spacing" textLength="272" x="779.5" y="1049.1895">monto_interes : NUMERIC(12,2) NOT NULL</text><text fill="#000000" font-family="sans-serif" font-size="14" lengthAdjust="spacing" textLength="281" x="779.5" y="1066.7988">monto_cobrado : NUMERIC(12,2) NOT NULL</text><text fill="#000000" font-family="sans-serif" font-size="14" lengthAdjust="spacing" textLength="262" x="779.5" y="1084.4082">saldo_actual : NUMERIC(12,2) NOT NULL</text><line style="stroke:#181818;stroke-width:1.0;" x1="774.5" x2="1150.5" y1="1091.4844" y2="1091.4844"/><text fill="#000000" font-family="sans-serif" font-size="14" lengthAdjust="spacing" textLength="277" x="779.5" y="1110.0176">FK &#8594; prestamos(id) ON DELETE CASCADE</text><text fill="#000000" font-family="sans-serif" font-size="14" lengthAdjust="spacing" textLength="242" x="779.5" y="1127.627">UNIQUE(prestamo_id, numero_abono)</text><text fill="#000000" font-family="sans-serif" font-size="14" lengthAdjust="spacing" textLength="177" x="779.5" y="1145.2363">CHECK(numero_abono &gt; 0)</text><text fill="#000000" font-family="sans-serif" font-size="14" lengthAdjust="spacing" textLength="177" x="779.5" y="1162.8457">CHECK(monto_capital &gt;= 0)</text><text fill="#000000" font-family="sans-serif" font-size="14" lengthAdjust="spacing" textLength="179" x="779.5" y="1180.4551">CHECK(monto_interes &gt;= 0)</text><text fill="#000000" font-family="sans-serif" font-size="14" lengthAdjust="spacing" textLength="188" x="779.5" y="1198.0645">CHECK(monto_cobrado &gt;= 0)</text><text fill="#000000" font-family="sans-serif" font-size="14" lengthAdjust="spacing" textLength="169" x="779.5" y="1215.6738">CHECK(saldo_actual &gt;= 0)</text><text fill="#000000" font-family="sans-serif" font-size="14" lengthAdjust="spacing" textLength="366" x="779.5" y="1233.2832">CHECK(monto_cobrado = monto_capital + monto_interes)</text></g><g id="elem_GMN11"><path d="M401,584.1094 L401,634.1094 L366.31,638.1094 L401,642.1094 L401,692.2188 A0,0 0 0 0 401,692.2188 L644,692.2188 A0,0 0 0 0 644,692.2188 L644,594.1094 L634,584.1094 L401,584.1094 A0,0 0 0 0 401,584.1094 " fill="#FEFFDD" style="stroke:#181818;stroke-width:0.5;"/><path d="M634,584.1094 L634,594.1094 L644,594.1094 L634,584.1094 " fill="#FEFFDD" style="stroke:#181818;stroke-width:0.5;"/><text fill="#000000" font-family="sans-serif" font-size="13" font-weight="bold" lengthAdjust="spacing" textLength="130" x="407" y="602.6045">&#205;ndice &#250;nico parcial:</text><text fill="#000000" font-family="sans-serif" font-size="13" lengthAdjust="spacing" textLength="206" x="407" y="618.9561">Solo un puesto activo por empleado</text><text fill="#000000" font-family="sans-serif" font-size="13" lengthAdjust="spacing" textLength="111" x="407" y="635.3076">(fecha_fin IS NULL)</text><text fill="#000000" font-family="sans-serif" font-size="13" lengthAdjust="spacing" textLength="4" x="407" y="651.6592">&#160;</text><text fill="#000000" font-family="sans-serif" font-size="13" font-weight="bold" lengthAdjust="spacing" textLength="142" x="407" y="668.0107">Trigger recomendado:</text><text fill="#000000" font-family="sans-serif" font-size="13" lengthAdjust="spacing" textLength="222" x="407" y="684.3623">Cerrar puesto anterior al asignar nuevo</text></g><g id="elem_GMN14"><path d="M1280.5,559.6094 L1280.5,634.1094 L1245.61,638.1094 L1280.5,642.1094 L1280.5,716.7734 A0,0 0 0 0 1280.5,716.7734 L1536.5,716.7734 A0,0 0 0 0 1536.5,716.7734 L1536.5,569.6094 L1526.5,559.6094 L1280.5,559.6094 A0,0 0 0 0 1280.5,559.6094 " fill="#FEFFDD" style="stroke:#181818;stroke-width:0.5;"/><path d="M1526.5,559.6094 L1526.5,569.6094 L1536.5,569.6094 L1526.5,559.6094 " fill="#FEFFDD" style="stroke:#181818;stroke-width:0.5;"/><text fill="#000000" font-family="sans-serif" font-size="13" font-weight="bold" lengthAdjust="spacing" textLength="139" x="1286.5" y="578.1045">Estados del pr&#233;stamo:</text><text fill="#000000" font-family="sans-serif" font-size="13" lengthAdjust="spacing" textLength="182" x="1286.5" y="594.4561">1. SOLICITADO: Reci&#233;n creado</text><text fill="#000000" font-family="sans-serif" font-size="13" lengthAdjust="spacing" textLength="208" x="1286.5" y="610.8076">2. APROBADO: Validado por admin</text><text fill="#000000" font-family="sans-serif" font-size="13" lengthAdjust="spacing" textLength="215" x="1286.5" y="627.1592">3. ACTIVO: Tiene abonos registrados</text><text fill="#000000" font-family="sans-serif" font-size="13" lengthAdjust="spacing" textLength="154" x="1286.5" y="643.5107">4. CONCLUIDO: Saldo = 0</text><text fill="#000000" font-family="sans-serif" font-size="13" lengthAdjust="spacing" textLength="176" x="1286.5" y="659.8623">5. RECHAZADO: No aprobado</text><text fill="#000000" font-family="sans-serif" font-size="13" lengthAdjust="spacing" textLength="4" x="1286.5" y="676.2139">&#160;</text><text fill="#000000" font-family="sans-serif" font-size="13" font-weight="bold" lengthAdjust="spacing" textLength="135" x="1286.5" y="692.5654">Validaci&#243;n adicional:</text><text fill="#000000" font-family="sans-serif" font-size="13" lengthAdjust="spacing" textLength="235" x="1286.5" y="708.917">Solo un pr&#233;stamo ACTIVO por empleado</text></g><g id="elem_GMN17"><path d="M810,1301.6094 L810,1475.125 A0,0 0 0 0 810,1475.125 L1115,1475.125 A0,0 0 0 0 1115,1475.125 L1115,1311.6094 L1105,1301.6094 L966.5,1301.6094 L962.5,1240.7194 L958.5,1301.6094 L810,1301.6094 A0,0 0 0 0 810,1301.6094 " fill="#FEFFDD" style="stroke:#181818;stroke-width:0.5;"/><path d="M1105,1301.6094 L1105,1311.6094 L1115,1311.6094 L1105,1301.6094 " fill="#FEFFDD" style="stroke:#181818;stroke-width:0.5;"/><text fill="#000000" font-family="sans-serif" font-size="13" font-weight="bold" lengthAdjust="spacing" textLength="181" x="816" y="1320.1045">C&#225;lculo autom&#225;tico (trigger):</text><text fill="#000000" font-family="sans-serif" font-size="13" lengthAdjust="spacing" textLength="284" x="816" y="1336.4561">monto_cobrado = monto_capital + monto_interes</text><text fill="#000000" font-family="sans-serif" font-size="13" lengthAdjust="spacing" textLength="4" x="816" y="1352.8076">&#160;</text><text fill="#000000" font-family="sans-serif" font-size="13" font-weight="bold" lengthAdjust="spacing" textLength="71" x="816" y="1369.1592">Secuencia:</text><text fill="#000000" font-family="sans-serif" font-size="13" lengthAdjust="spacing" textLength="211" x="816" y="1385.5107">numero_abono debe ser consecutivo</text><text fill="#000000" font-family="sans-serif" font-size="13" lengthAdjust="spacing" textLength="142" x="816" y="1401.8623">1, 2, 3, ..., plazo_meses</text><text fill="#000000" font-family="sans-serif" font-size="13" lengthAdjust="spacing" textLength="4" x="816" y="1418.2139">&#160;</text><text fill="#000000" font-family="sans-serif" font-size="13" font-weight="bold" lengthAdjust="spacing" textLength="58" x="816" y="1434.5654">Cascade:</text><text fill="#000000" font-family="sans-serif" font-size="13" lengthAdjust="spacing" textLength="137" x="816" y="1450.917">Si se elimina pr&#233;stamo,</text><text fill="#000000" font-family="sans-serif" font-size="13" lengthAdjust="spacing" textLength="173" x="816" y="1467.2686">se eliminan todos sus abonos</text></g><g id="elem_GMN20"><path d="M60.5,44.6094 L60.5,169.0703 A0,0 0 0 0 60.5,169.0703 L182.5,169.0703 L186.5,229.4994 L190.5,169.0703 L312.5,169.0703 A0,0 0 0 0 312.5,169.0703 L312.5,54.6094 L302.5,44.6094 L60.5,44.6094 A0,0 0 0 0 60.5,44.6094 " fill="#FEFFDD" style="stroke:#181818;stroke-width:0.5;"/><path d="M302.5,44.6094 L302.5,54.6094 L312.5,54.6094 L302.5,44.6094 " fill="#FEFFDD" style="stroke:#181818;stroke-width:0.5;"/><text fill="#000000" font-family="sans-serif" font-size="13" font-weight="bold" lengthAdjust="spacing" textLength="115" x="66.5" y="63.1045">Datos de ejemplo:</text><text fill="#000000" font-family="sans-serif" font-size="13" lengthAdjust="spacing" textLength="185" x="66.5" y="79.4561">- PROGRAMADOR JR: $16,000</text><text fill="#000000" font-family="sans-serif" font-size="13" lengthAdjust="spacing" textLength="120" x="66.5" y="95.8076">- BECARIO: $10,000</text><text fill="#000000" font-family="sans-serif" font-size="13" lengthAdjust="spacing" textLength="224" x="66.5" y="112.1592">- PROGRAMADOR MASTER: $60,000</text><text fill="#000000" font-family="sans-serif" font-size="13" lengthAdjust="spacing" textLength="219" x="66.5" y="128.5107">- PROGRAMADOR SENIOR: $40,000</text><text fill="#000000" font-family="sans-serif" font-size="13" lengthAdjust="spacing" textLength="222" x="66.5" y="144.8623">- ARQUITECTO SOFTWARE: $50,000</text><text fill="#000000" font-family="sans-serif" font-size="13" lengthAdjust="spacing" textLength="231" x="66.5" y="161.2139">- ADMIN INFRAESTRUCTURA: $55,000</text></g><!--link empleados to historial--><g id="link_empleados_historial"><path codeLine="92" d="M571.9453,356.4932 C509.0453,381.4832 443.81,411.8694 383.5,451.6094 C349.27,474.1594 328.5635,490.5167 298.9035,518.5867 " fill="none" id="empleados-historial" style="stroke:#181818;stroke-width:1.0;"/><line style="stroke:#181818;stroke-width:1.0;" x1="574.1857" x2="577.1395" y1="351.2989" y2="358.7336"/><line style="stroke:#181818;stroke-width:1.0;" x1="571.3977" x2="574.3515" y1="352.4066" y2="359.8413"/><line style="stroke:#181818;stroke-width:1.0;" x1="571.9453" x2="579.38" y1="356.4932" y2="353.5394"/><line style="stroke:#181818;stroke-width:1.0;" x1="291.6405" x2="289.9542" y1="525.4604" y2="535.3172"/><line style="stroke:#181818;stroke-width:1.0;" x1="291.6405" x2="281.7058" y1="525.4604" y2="526.6015"/><line style="stroke:#181818;stroke-width:1.0;" x1="291.6405" x2="285.83" y1="525.4604" y2="530.9594"/><ellipse cx="295.9983" cy="521.3362" fill="none" rx="4" ry="4" style="stroke:#181818;stroke-width:1.0;"/><text fill="#000000" font-family="sans-serif" font-size="13" lengthAdjust="spacing" textLength="77" x="463.5" y="418.1045">tiene historial</text></g><!--link puestos to historial--><g id="link_puestos_historial"><path codeLine="93" d="M186.5,381.9594 C186.5,427.6194 186.5,461.6994 186.5,512.9094 " fill="none" id="puestos-historial" style="stroke:#181818;stroke-width:1.0;"/><line style="stroke:#181818;stroke-width:1.0;" x1="182.5" x2="190.5" y1="377.9594" y2="377.9594"/><line style="stroke:#181818;stroke-width:1.0;" x1="182.5" x2="190.5" y1="380.9594" y2="380.9594"/><line style="stroke:#181818;stroke-width:1.0;" x1="186.5" x2="186.5" y1="381.9594" y2="373.9594"/><line style="stroke:#181818;stroke-width:1.0;" x1="186.5" x2="192.5" y1="522.9094" y2="530.9094"/><line style="stroke:#181818;stroke-width:1.0;" x1="186.5" x2="180.5" y1="522.9094" y2="530.9094"/><line style="stroke:#181818;stroke-width:1.0;" x1="186.5" x2="186.5" y1="522.9094" y2="530.9094"/><ellipse cx="186.5" cy="516.9094" fill="none" rx="4" ry="4" style="stroke:#181818;stroke-width:1.0;"/><text fill="#000000" font-family="sans-serif" font-size="13" lengthAdjust="spacing" textLength="70" x="187.5" y="418.1045">asignado en</text></g><!--link empleados to prestamos--><g id="link_empleados_prestamos"><path codeLine="94" d="M781.4516,380.4964 C797.7616,403.6164 801.695,409.1802 821.085,436.6702 " fill="none" id="empleados-prestamos" style="stroke:#181818;stroke-width:1.0;"/><line style="stroke:#181818;stroke-width:1.0;" x1="775.8773" x2="782.4143" y1="379.5337" y2="374.9221"/><line style="stroke:#181818;stroke-width:1.0;" x1="777.6066" x2="784.1437" y1="381.9851" y2="377.3735"/><line style="stroke:#181818;stroke-width:1.0;" x1="781.4516" x2="776.84" y1="380.4964" y2="373.9594"/><line style="stroke:#181818;stroke-width:1.0;" x1="826.8489" x2="836.363" y1="444.842" y2="447.921"/><line style="stroke:#181818;stroke-width:1.0;" x1="826.8489" x2="826.557" y1="444.842" y2="454.8377"/><line style="stroke:#181818;stroke-width:1.0;" x1="826.8489" x2="831.46" y1="444.842" y2="451.3794"/><ellipse cx="823.3905" cy="439.9389" fill="none" rx="4" ry="4" style="stroke:#181818;stroke-width:1.0;"/><text fill="#000000" font-family="sans-serif" font-size="13" lengthAdjust="spacing" textLength="41" x="810.5" y="418.1045">solicita</text></g><!--link prestamos to abonos--><g id="link_prestamos_abonos"><path codeLine="95" d="M962.5,832.9194 C962.5,858.7194 962.5,859.0894 962.5,884.5394 " fill="none" id="prestamos-abonos" style="stroke:#181818;stroke-width:1.0;"/><line style="stroke:#181818;stroke-width:1.0;" x1="958.5" x2="966.5" y1="828.9194" y2="828.9194"/><line style="stroke:#181818;stroke-width:1.0;" x1="958.5" x2="966.5" y1="831.9194" y2="831.9194"/><line style="stroke:#181818;stroke-width:1.0;" x1="962.5" x2="962.5" y1="832.9194" y2="824.9194"/><line style="stroke:#181818;stroke-width:1.0;" x1="962.5" x2="968.5" y1="894.5394" y2="902.5394"/><line style="stroke:#181818;stroke-width:1.0;" x1="962.5" x2="956.5" y1="894.5394" y2="902.5394"/><line style="stroke:#181818;stroke-width:1.0;" x1="962.5" x2="962.5" y1="894.5394" y2="902.5394"/><ellipse cx="962.5" cy="888.5394" fill="none" rx="4" ry="4" style="stroke:#181818;stroke-width:1.0;"/><text fill="#000000" font-family="sans-serif" font-size="13" lengthAdjust="spacing" textLength="67" x="963.5" y="869.1045">tiene pagos</text></g><!--SRC=[jLVDSjis4BxpAJPkPoovaYexSGuQHJCqHITiP2cXg6Ic5mr4mZ8IYb01C1CdwRMtNle6EURSMwz-apv95mH_9TjDEbCVF19siJ_VVhjOFOZe9Kie16GLqrP2DhGJKHcs8Oo9bA0FW4ZGPp0SGYleV7T-RkDV6qOZwq5-UolOXeZhvLjwtNhVXk5gD0nvpCL0q6ZqVlXZzcKq_75LNRdaWh9rKbun-giufTM5KZbDs2yfhUcj1QL9JT5IJCKKneoi1TaGS1F58X9rVHgJaDtycK0NpeYac0YCYU8INd2fqChyvSIo3i7XoILRfy8eM_8jIxO4BHaORAK4MwMAUY5Fvkm3XRvrnT3KXgeh7adpHIegA5VNMoejYs80wXeEjYcLwEv0WvX_XeyMD11ZKHi6C7TzpvwWgDl5VmdVh0J5urUsxpop_TPnlz-6wIo0wMAYjMHAuuYZmdHnWJSTLEYSD3GoEukfztBXjeovDXuuprpdUIk_FO9-s_grYfPkjZ4bKHvl-Us_HNoo4_4b3Q_8aYM8kjI1Z-t0hSj9gDWxBJYRpIQkFOMnUsul9W44_i8jl9ZmcwQ6Jy1P-Bux3PRQPYEZAuQG2qRYPRqIvUbNPLQdQe79qYXwqy1zwlgDD6lQnkSzkdaUB6It8MB4s06bh5RPy-Vmzsz_L4NIeLV7URRvOHqrRSwRPwPWvjTyZ1hXj2loD79-_SprNTWpLSTyYrLHP5EmllZsFs2zuObgzC39JWziO_A1BpTKKdbV1IIFCMULHdSMWMm5N-5quBkrK4Hgo7JlItIKo1HPLKLqgWCgY7pSw-kOo9eZT6_uCYHRfXhgUmdKIxBKKpYb9kLw36KrxjIG1DjzYHsMtkzEbogRAbKJxy-KEvXdI6PAaWsMugXU11I0FHqt2eFzU_AeDflgiOwUr2tbuNbJQ1tEPnFFyG9xF3li7Del_DbP_j49l5VwWpEREfE5bntwBcRpirPex_P3hR9xRL6JOI0xN6dC6RBYIKvuy_6RsLxqoTriJz8D5OYCjdyFcs_XS5QKhw6RKSpf_E-A8Ly94jtRWL_Bl3gpof6HWJRJBy74nOmSU-xOOxUQJ3NCEWrugY8tG6lGiWbAasXD76wJ5QatPVTmjtdjoKvDVcX2dt7h4CpwmXFSAAh7-DEdRfT_hBrX0pXGZEAQL1uTMCMkSPioaSWv7GHD3lRjLlCQLNEo4pHO7kTwESrBvtgioGCTzPJZKBGIhYW8jhvIm2-h012FewERtvE8XHHk_iB1nl6g254qE3f2wHmtEbpuyXUis0gsN9G31vNstp8DT6OxG9zhAa3GaECynYsG6yCE5OA8qgu6cg5LnCG08f11z1t7bev01s_jf50YaBbnir6aD-CO9JTVCf5nTDo3QZWDi8YuL7v981Hvy2SzAEOL3beIwqtLP4YY3KjGuo5gP6Di0446RWwse6l4KHD81_6e1-MCmycYgOUyqa_CQG_AYOSzXzbcWoppdaLll9hDc4JwSKdsy2-IoaDfbc07f1LNYcyqIYRIp8bpypaEKxH6KXJUV5QwrYrbwjCsthwfAuhevrG_SaWPOwFHuX5TuIgEzSTLNQAUPe-kIGTEEl2m0xrUhrD_VGgR3f4XYMYE0KCJG6E6vI0L4Xqzpyhp11JN391fCVDtKL5ycn77z6Bcnlpum5yBz8t6CcTC5v0FJttx0klbmq_-0Bu_Vjpfz_kPxCnrRD-RwSD-ULY_S67F0rTVUdoxVEvElPcMFwhajlzouGMk4yoGhEV1QzjtKU6qfZ2-m7VMcvxxjZl75Tm95hwjLKupbJBLVm00]--></g></svg>