<?xml version="1.0" encoding="us-ascii" standalone="no"?><svg xmlns="http://www.w3.org/2000/svg" xmlns:xlink="http://www.w3.org/1999/xlink" contentStyleType="text/css" height="1899px" preserveAspectRatio="none" style="width:1144px;height:1899px;background:#FFFFFF;" version="1.1" viewBox="0 0 1144 1899" width="1144px" zoomAndPan="magnify"><defs/><g><text fill="#000000" font-family="sans-serif" font-size="14" font-weight="bold" lengthAdjust="spacing" textLength="355" x="387.5" y="24.5332">Diagrama de Casos de Uso - Sistema de Pr&#233;stamos</text><!--cluster Sistema de Gesti?n de Pr?stamos--><g id="cluster_Sistema de Gesti&#243;n de Pr&#233;stamos"><rect fill="none" height="1587" rx="2.5" ry="2.5" style="stroke:#181818;stroke-width:1.0;" width="691" x="231" y="306.0894"/><text fill="#000000" font-family="sans-serif" font-size="14" font-weight="bold" lengthAdjust="spacing" textLength="236" x="458.5" y="322.6226">Sistema de Gesti&#243;n de Pr&#233;stamos</text></g><!--cluster Gesti?n de Cat?logos--><g id="cluster_Gesti&#243;n de Cat&#225;logos"><rect fill="#DDDDDD" height="406" rx="2.5" ry="2.5" style="stroke:#181818;stroke-width:1.0;" width="231" x="287.5" y="350.0894"/><text fill="#000000" font-family="sans-serif" font-size="14" font-weight="bold" lengthAdjust="spacing" textLength="151" x="327.5" y="366.6226">Gesti&#243;n de Cat&#225;logos</text></g><!--cluster Gesti?n de Historial--><g id="cluster_Gesti&#243;n de Historial"><rect fill="#E8F4F8" height="195" rx="2.5" ry="2.5" style="stroke:#181818;stroke-width:1.0;" width="633.5" x="264.5" y="780.0894"/><text fill="#000000" font-family="sans-serif" font-size="14" font-weight="bold" lengthAdjust="spacing" textLength="139" x="511.75" y="796.6226">Gesti&#243;n de Historial</text></g><!--cluster Gesti?n de Pr?stamos--><g id="cluster_Gesti&#243;n de Pr&#233;stamos"><rect fill="#F0F8E8" height="373" rx="2.5" ry="2.5" style="stroke:#181818;stroke-width:1.0;" width="632" x="260" y="999.0894"/><text fill="#000000" font-family="sans-serif" font-size="14" font-weight="bold" lengthAdjust="spacing" textLength="155" x="498.5" y="1015.6226">Gesti&#243;n de Pr&#233;stamos</text></g><!--cluster Gesti?n de Abonos--><g id="cluster_Gesti&#243;n de Abonos"><rect fill="#FFF8E8" height="163" rx="2.5" ry="2.5" style="stroke:#181818;stroke-width:1.0;" width="564" x="295" y="1396.0894"/><text fill="#000000" font-family="sans-serif" font-size="14" font-weight="bold" lengthAdjust="spacing" textLength="134" x="510" y="1412.6226">Gesti&#243;n de Abonos</text></g><!--cluster Reportes y Consultas--><g id="cluster_Reportes y Consultas"><rect fill="#F8E8F0" height="286" rx="2.5" ry="2.5" style="stroke:#181818;stroke-width:1.0;" width="296" x="255" y="1583.0894"/><text fill="#000000" font-family="sans-serif" font-size="14" font-weight="bold" lengthAdjust="spacing" textLength="150" x="328" y="1599.6226">Reportes y Consultas</text></g><g id="elem_UC_A"><ellipse cx="402.9661" cy="405.8826" fill="#F1F1F1" rx="86.9661" ry="19.7932" style="stroke:#181818;stroke-width:0.5;"/><text fill="#000000" font-family="sans-serif" font-size="14" lengthAdjust="spacing" textLength="131" x="337.4661" y="409.6111">RF-A: Listar Puestos</text></g><g id="elem_UC_B"><ellipse cx="402.8297" cy="482.1553" fill="#F1F1F1" rx="90.8297" ry="20.5659" style="stroke:#181818;stroke-width:0.5;"/><text fill="#000000" font-family="sans-serif" font-size="14" lengthAdjust="spacing" textLength="140" x="332.8297" y="485.8838">RF-B: Agregar Puesto</text></g><g id="elem_UC_C"><ellipse cx="403.13" cy="559.1154" fill="#F1F1F1" rx="95.63" ry="21.526" style="stroke:#181818;stroke-width:0.5;"/><text fill="#000000" font-family="sans-serif" font-size="14" lengthAdjust="spacing" textLength="151" x="327.63" y="562.8439">RF-C: Listar Empleados</text></g><g id="elem_UC_D"><ellipse cx="403.113" cy="637.912" fill="#F1F1F1" rx="99.613" ry="22.3226" style="stroke:#181818;stroke-width:0.5;"/><text fill="#000000" font-family="sans-serif" font-size="14" lengthAdjust="spacing" textLength="160" x="323.113" y="641.6405">RF-D: Agregar Empleado</text></g><g id="elem_UC_I"><ellipse cx="403.1681" cy="718.323" fill="#F1F1F1" rx="99.1681" ry="22.2336" style="stroke:#181818;stroke-width:0.5;"/><text fill="#000000" font-family="sans-serif" font-size="14" lengthAdjust="spacing" textLength="159" x="323.6681" y="722.0515">RF-I: Modificar Empleado</text></g><g id="elem_UC_E"><ellipse cx="768.0948" cy="842.3083" fill="#F1F1F1" rx="114.0948" ry="25.219" style="stroke:#181818;stroke-width:0.5;"/><text fill="#000000" font-family="sans-serif" font-size="14" lengthAdjust="spacing" textLength="192" x="672.0948" y="846.0369">RF-E: Ver Historial de Puestos</text></g><g id="elem_UC_F"><ellipse cx="402.9467" cy="842.8787" fill="#F1F1F1" rx="121.9467" ry="26.7893" style="stroke:#181818;stroke-width:0.5;"/><text fill="#000000" font-family="sans-serif" font-size="14" lengthAdjust="spacing" textLength="209" x="298.4467" y="846.6072">RF-F: Cambiar Puesto Empleado</text></g><g id="elem_UC_G"><ellipse cx="402.9113" cy="931.9716" fill="#F1F1F1" rx="122.4113" ry="26.8823" style="stroke:#181818;stroke-width:0.5;"/><text fill="#000000" font-family="sans-serif" font-size="14" lengthAdjust="spacing" textLength="210" x="297.9113" y="935.7002">RF-G: Ver Historial de Pr&#233;stamos</text></g><g id="elem_UC_K"><ellipse cx="402.9113" cy="1061.9716" fill="#F1F1F1" rx="122.4113" ry="26.8823" style="stroke:#181818;stroke-width:0.5;"/><text fill="#000000" font-family="sans-serif" font-size="14" lengthAdjust="spacing" textLength="210" x="297.9113" y="1065.7002">RF-K: Solicitar/Agregar Pr&#233;stamo</text></g><g id="elem_UC_H"><ellipse cx="403.2025" cy="1150.2299" fill="#F1F1F1" rx="118.7025" ry="26.1405" style="stroke:#181818;stroke-width:0.5;"/><text fill="#000000" font-family="sans-serif" font-size="14" lengthAdjust="spacing" textLength="202" x="302.2025" y="1153.9584">RF-H: Ver Detalles de Pr&#233;stamo</text></g><g id="elem_UC_J"><ellipse cx="402.9113" cy="1237.9716" fill="#F1F1F1" rx="122.4113" ry="26.8823" style="stroke:#181818;stroke-width:0.5;"/><text fill="#000000" font-family="sans-serif" font-size="14" lengthAdjust="spacing" textLength="210" x="297.9113" y="1241.7002">RF-J: Listar Todos los Pr&#233;stamos</text></g><g id="elem_UC_M"><ellipse cx="403.0728" cy="1327.9039" fill="#F1F1F1" rx="127.0728" ry="27.8146" style="stroke:#181818;stroke-width:0.5;"/><text fill="#000000" font-family="sans-serif" font-size="14" lengthAdjust="spacing" textLength="220" x="293.0728" y="1331.6325">RF-M: Listar Pr&#233;stamos Detallados</text></g><g id="elem_UC_ValidarReq"><ellipse cx="767.8789" cy="1213.9652" fill="#F1F1F1" rx="79.8789" ry="18.3758" style="stroke:#181818;stroke-width:0.5;"/><text fill="#000000" font-family="sans-serif" font-size="14" lengthAdjust="spacing" textLength="114" x="709.8373" y="1217.9918">Validar Requisitos</text></g><g id="elem_UC_CalcMonto"><ellipse cx="767.9382" cy="1139.177" fill="#F1F1F1" rx="93.4382" ry="21.0876" style="stroke:#181818;stroke-width:0.5;"/><text fill="#000000" font-family="sans-serif" font-size="14" lengthAdjust="spacing" textLength="146" x="694.9382" y="1142.9055">Calcular Monto M&#225;ximo</text></g><g id="elem_UC_Aprobar"><ellipse cx="768.1585" cy="1059.1211" fill="#F1F1F1" rx="108.1585" ry="24.0317" style="stroke:#181818;stroke-width:0.5;"/><text fill="#000000" font-family="sans-serif" font-size="14" lengthAdjust="spacing" textLength="179" x="678.6585" y="1062.8496">Aprobar/Rechazar Pr&#233;stamo</text></g><g id="elem_UC_L"><ellipse cx="403.1309" cy="1452.9156" fill="#F1F1F1" rx="92.1309" ry="20.8262" style="stroke:#181818;stroke-width:0.5;"/><text fill="#000000" font-family="sans-serif" font-size="14" lengthAdjust="spacing" textLength="143" x="331.6309" y="1456.6441">RF-L: Registrar Abono</text></g><g id="elem_UC_CalcInteres"><ellipse cx="768.1111" cy="1520.3116" fill="#F1F1F1" rx="74.1111" ry="17.2222" style="stroke:#181818;stroke-width:0.5;"/><text fill="#000000" font-family="sans-serif" font-size="14" lengthAdjust="spacing" textLength="99" x="715.6111" y="1524.8282">Calcular Inter&#233;s</text></g><g id="elem_UC_ActSaldo"><ellipse cx="767.8525" cy="1449.9599" fill="#F1F1F1" rx="74.8525" ry="17.3705" style="stroke:#181818;stroke-width:0.5;"/><text fill="#000000" font-family="sans-serif" font-size="14" lengthAdjust="spacing" textLength="101" x="714.3525" y="1454.4765">Actualizar Saldo</text></g><g id="elem_UC_N"><ellipse cx="402.7982" cy="1828.849" fill="#F1F1F1" rx="106.7982" ry="23.7596" style="stroke:#181818;stroke-width:0.5;"/><text fill="#000000" font-family="sans-serif" font-size="14" lengthAdjust="spacing" textLength="176" x="314.7982" y="1832.5775">RF-N: Reporte de Pr&#233;stamo</text></g><g id="elem_UC_O"><ellipse cx="403.2297" cy="1647.9353" fill="#F1F1F1" rx="132.2297" ry="28.8459" style="stroke:#181818;stroke-width:0.5;"/><text fill="#000000" font-family="sans-serif" font-size="14" lengthAdjust="spacing" textLength="231" x="287.7297" y="1651.6638">RF-O: Historial Pr&#233;stamos Empleado</text></g><g id="elem_UC_P"><ellipse cx="402.8821" cy="1740.9658" fill="#F1F1F1" rx="129.8821" ry="28.3764" style="stroke:#181818;stroke-width:0.5;"/><text fill="#000000" font-family="sans-serif" font-size="14" lengthAdjust="spacing" textLength="226" x="289.8821" y="1744.6943">RF-P: Pr&#233;stamos Activos por Fecha</text></g><!--entity AdminRH--><g id="elem_AdminRH"><ellipse cx="95" cy="528.5894" fill="#ADD8E6" rx="8" ry="8" style="stroke:#181818;stroke-width:0.5;"/><path d="M95,536.5894 L95,563.5894 M82,544.5894 L108,544.5894 M95,563.5894 L82,578.5894 M95,563.5894 L108,578.5894 " fill="none" style="stroke:#181818;stroke-width:0.5;"/><text fill="#000000" font-family="sans-serif" font-size="14" lengthAdjust="spacing" textLength="110" x="40" y="594.6226">Administrador RH</text></g><!--entity AdminPrestamos--><g id="elem_AdminPrestamos"><ellipse cx="95" cy="1177.5894" fill="#90EE90" rx="8" ry="8" style="stroke:#181818;stroke-width:0.5;"/><path d="M95,1185.5894 L95,1212.5894 M82,1193.5894 L108,1193.5894 M95,1212.5894 L82,1227.5894 M95,1212.5894 L108,1227.5894 " fill="none" style="stroke:#181818;stroke-width:0.5;"/><text fill="#000000" font-family="sans-serif" font-size="14" lengthAdjust="spacing" textLength="178" x="6" y="1243.6226">Administrador de Pr&#233;stamos</text></g><!--entity Empleado--><g id="elem_Empleado"><ellipse cx="95" cy="1031.5894" fill="#FFFFE0" rx="8" ry="8" style="stroke:#181818;stroke-width:0.5;"/><path d="M95,1039.5894 L95,1066.5894 M82,1047.5894 L108,1047.5894 M95,1066.5894 L82,1081.5894 M95,1066.5894 L108,1081.5894 " fill="none" style="stroke:#181818;stroke-width:0.5;"/><text fill="#000000" font-family="sans-serif" font-size="14" lengthAdjust="spacing" textLength="63" x="63.5" y="1097.6226">Empleado</text></g><!--entity Consultor--><g id="elem_Consultor"><ellipse cx="95" cy="1617.5894" fill="#FFB6C1" rx="8" ry="8" style="stroke:#181818;stroke-width:0.5;"/><path d="M95,1625.5894 L95,1652.5894 M82,1633.5894 L108,1633.5894 M95,1652.5894 L82,1667.5894 M95,1652.5894 L108,1667.5894 " fill="none" style="stroke:#181818;stroke-width:0.5;"/><text fill="#000000" font-family="sans-serif" font-size="14" lengthAdjust="spacing" textLength="143" x="23.5" y="1683.6226">Consultor de Reportes</text></g><g id="elem_GMN60"><path d="M974.5,1176.5894 L974.5,1210.0894 L848.21,1214.0894 L974.5,1218.0894 L974.5,1251.9956 A0,0 0 0 0 974.5,1251.9956 L1131.5,1251.9956 A0,0 0 0 0 1131.5,1251.9956 L1131.5,1186.5894 L1121.5,1176.5894 L974.5,1176.5894 A0,0 0 0 0 974.5,1176.5894 " fill="#FEFFDD" style="stroke:#181818;stroke-width:0.5;"/><path d="M1121.5,1176.5894 L1121.5,1186.5894 L1131.5,1186.5894 L1121.5,1176.5894 " fill="#FEFFDD" style="stroke:#181818;stroke-width:0.5;"/><text fill="#000000" font-family="sans-serif" font-size="13" lengthAdjust="spacing" textLength="40" x="980.5" y="1195.0845">Valida:</text><text fill="#000000" font-family="sans-serif" font-size="13" lengthAdjust="spacing" textLength="129" x="980.5" y="1211.4361">- Antig&#252;edad &gt;= 1 a&#241;o</text><text fill="#000000" font-family="sans-serif" font-size="13" lengthAdjust="spacing" textLength="136" x="980.5" y="1227.7876">- Sin pr&#233;stamos activos</text><text fill="#000000" font-family="sans-serif" font-size="13" lengthAdjust="spacing" textLength="80" x="980.5" y="1244.1392">- Monto v&#225;lido</text></g><g id="elem_GMN63"><path d="M969,1498.5894 L969,1516.0894 L842.25,1520.0894 L969,1524.0894 L969,1541.2925 A0,0 0 0 0 969,1541.2925 L1137,1541.2925 A0,0 0 0 0 1137,1541.2925 L1137,1508.5894 L1127,1498.5894 L969,1498.5894 A0,0 0 0 0 969,1498.5894 " fill="#FEFFDD" style="stroke:#181818;stroke-width:0.5;"/><path d="M1127,1498.5894 L1127,1508.5894 L1137,1508.5894 L1127,1498.5894 " fill="#FEFFDD" style="stroke:#181818;stroke-width:0.5;"/><text fill="#000000" font-family="sans-serif" font-size="13" lengthAdjust="spacing" textLength="129" x="975" y="1517.0845">Inter&#233;s = Saldo &#215; 0.01</text><text fill="#000000" font-family="sans-serif" font-size="13" lengthAdjust="spacing" textLength="147" x="975" y="1533.4361">Monto = Capital + Inter&#233;s</text></g><g id="elem_GMN66"><path d="M298.5,214.5894 L298.5,289.9956 L507.5,289.9956 L507.5,224.5894 L497.5,214.5894 L298.5,214.5894 " fill="#FEFFDD" style="stroke:#181818;stroke-width:0.5;"/><path d="M497.5,214.5894 L497.5,224.5894 L507.5,224.5894 L497.5,214.5894 " fill="#FEFFDD" style="stroke:#181818;stroke-width:1.0;"/><text fill="#000000" font-family="sans-serif" font-size="13" lengthAdjust="spacing" textLength="131" x="304.5" y="233.0845">Estados del pr&#233;stamo:</text><text fill="#000000" font-family="sans-serif" font-size="13" lengthAdjust="spacing" textLength="184" x="304.5" y="249.4361">SOLICITADO &#8594; APROBADO &#8594;</text><text fill="#000000" font-family="sans-serif" font-size="13" lengthAdjust="spacing" textLength="141" x="304.5" y="265.7876">ACTIVO &#8594; CONCLUIDO</text><text fill="#000000" font-family="sans-serif" font-size="13" lengthAdjust="spacing" textLength="99" x="304.5" y="282.1392">(o RECHAZADO)</text></g><!--link AdminRH to UC_A--><g id="link_AdminRH_UC_A"><path d="M129.03,519.9494 C152.65,494.4994 186.58,462.6994 223,444.0894 C253.55,428.4694 284.2635,420.2668 316.4135,414.8468 " fill="none" id="AdminRH-to-UC_A" style="stroke:#181818;stroke-width:1.0;"/><polygon fill="#181818" points="322.33,413.8494,312.7903,411.4012,317.3996,414.6806,314.1202,419.2899,322.33,413.8494" style="stroke:#181818;stroke-width:1.0;"/></g><!--link AdminRH to UC_B--><g id="link_AdminRH_UC_B"><path d="M150.08,541.3194 C172.52,534.2594 198.89,526.3394 223,520.0894 C258.98,510.7694 293.5789,503.2179 326.9289,496.4779 " fill="none" id="AdminRH-to-UC_B" style="stroke:#181818;stroke-width:1.0;"/><polygon fill="#181818" points="332.81,495.2894,323.196,493.1515,327.9091,496.2798,324.7807,500.993,332.81,495.2894" style="stroke:#181818;stroke-width:1.0;"/></g><!--link AdminRH to UC_C--><g id="link_AdminRH_UC_C"><path d="M150,559.0894 C193.5,559.0894 249.7,559.0894 301.42,559.0894 " fill="none" id="AdminRH-to-UC_C" style="stroke:#181818;stroke-width:1.0;"/><polygon fill="#181818" points="307.42,559.0894,298.42,555.0894,302.42,559.0894,298.42,563.0894,307.42,559.0894" style="stroke:#181818;stroke-width:1.0;"/></g><!--link AdminRH to UC_D--><g id="link_AdminRH_UC_D"><path d="M150.12,576.7294 C172.55,583.7794 198.92,591.7094 223,598.0894 C257.48,607.2194 290.185,614.7536 322.665,621.7636 " fill="none" id="AdminRH-to-UC_D" style="stroke:#181818;stroke-width:1.0;"/><polygon fill="#181818" points="328.53,623.0294,320.5764,617.2207,323.6425,621.9745,318.8887,625.0406,328.53,623.0294" style="stroke:#181818;stroke-width:1.0;"/></g><!--link AdminRH to UC_I--><g id="link_AdminRH_UC_I"><path d="M127.81,598.3494 C151.37,624.8194 185.74,658.3894 223,678.0894 C251.01,692.8994 278.4004,701.0934 308.6204,706.9734 " fill="none" id="AdminRH-to-UC_I" style="stroke:#181818;stroke-width:1.0;"/><polygon fill="#181818" points="314.51,708.1194,306.4396,702.4741,309.602,707.1644,304.9117,710.3268,314.51,708.1194" style="stroke:#181818;stroke-width:1.0;"/></g><!--link AdminRH to UC_E--><g id="link_AdminRH_UC_E"><path d="M101.74,519.7694 C116.66,423.6194 159.93,181.0694 223,134.0894 C342.76,44.8794 439.45,44.6094 559,134.0894 C674.26,220.3594 746.6328,694.9067 762.7828,810.9267 " fill="none" id="AdminRH-to-UC_E" style="stroke:#181818;stroke-width:1.0;"/><polygon fill="#181818" points="763.61,816.8694,766.331,807.4038,762.9206,811.9171,758.4074,808.5068,763.61,816.8694" style="stroke:#181818;stroke-width:1.0;"/></g><!--link AdminRH to UC_F--><g id="link_AdminRH_UC_F"><path d="M113.31,598.3994 C134.06,641.7494 172.45,711.2794 223,756.0894 C255.32,784.7394 293.1804,803.9178 329.1704,818.3378 " fill="none" id="AdminRH-to-UC_F" style="stroke:#181818;stroke-width:1.0;"/><polygon fill="#181818" points="334.74,820.5694,327.8733,813.509,330.0987,818.7098,324.8979,820.9351,334.74,820.5694" style="stroke:#181818;stroke-width:1.0;"/></g><!--link Empleado to UC_K--><g id="link_Empleado_UC_K"><path d="M126.74,1062.0894 C162.66,1062.0894 218.31,1062.0894 274.16,1062.0894 " fill="none" id="Empleado-to-UC_K" style="stroke:#181818;stroke-width:1.0;"/><polygon fill="#181818" points="280.16,1062.0894,271.16,1058.0894,275.16,1062.0894,271.16,1066.0894,280.16,1062.0894" style="stroke:#181818;stroke-width:1.0;"/></g><!--link Empleado to UC_G--><g id="link_Empleado_UC_G"><path d="M126.74,1049.0294 C177.89,1027.2994 275.6875,985.7449 340.1775,958.3549 " fill="none" id="Empleado-to-UC_G" style="stroke:#181818;stroke-width:1.0;"/><polygon fill="#181818" points="345.7,956.0094,335.8525,955.846,341.0979,957.964,338.9799,963.2094,345.7,956.0094" style="stroke:#181818;stroke-width:1.0;"/></g><!--link Empleado to UC_H--><g id="link_Empleado_UC_H"><path d="M126.54,1073.5594 C152.1,1082.9494 189.66,1096.2394 223,1106.0894 C254.3,1115.3394 283.2456,1122.7996 313.7556,1130.1196 " fill="none" id="Empleado-to-UC_H" style="stroke:#181818;stroke-width:1.0;"/><polygon fill="#181818" points="319.59,1131.5194,311.7716,1125.5301,314.728,1130.3529,309.9052,1133.3093,319.59,1131.5194" style="stroke:#181818;stroke-width:1.0;"/></g><!--link AdminPrestamos to UC_K--><g id="link_AdminPrestamos_UC_K"><path d="M135.44,1168.8594 C159.04,1147.4194 190.67,1122.0594 223,1106.0894 C248.1,1093.6894 271.1283,1086.0305 298.2383,1079.4705 " fill="none" id="AdminPrestamos-to-UC_K" style="stroke:#181818;stroke-width:1.0;"/><polygon fill="#181818" points="304.07,1078.0594,294.3817,1076.2883,299.2103,1079.2353,296.2632,1084.0639,304.07,1078.0594" style="stroke:#181818;stroke-width:1.0;"/></g><!--link AdminPrestamos to UC_L--><g id="link_AdminPrestamos_UC_L"><path d="M118.6,1247.3294 C141.16,1283.6494 178.77,1337.1594 223,1372.0894 C260.21,1401.4694 304.1281,1420.8155 341.6781,1434.1955 " fill="none" id="AdminPrestamos-to-UC_L" style="stroke:#181818;stroke-width:1.0;"/><polygon fill="#181818" points="347.33,1436.2094,340.1947,1429.4206,342.6201,1434.5311,337.5095,1436.9564,347.33,1436.2094" style="stroke:#181818;stroke-width:1.0;"/></g><!--link AdminPrestamos to UC_J--><g id="link_AdminPrestamos_UC_J"><path d="M184.1,1216.7294 C217.38,1219.9894 249.7186,1223.1646 284.8486,1226.6046 " fill="none" id="AdminPrestamos-to-UC_J" style="stroke:#181818;stroke-width:1.0;"/><polygon fill="#181818" points="290.82,1227.1894,282.2527,1222.3313,285.8438,1226.7021,281.473,1230.2932,290.82,1227.1894" style="stroke:#181818;stroke-width:1.0;"/></g><!--link AdminPrestamos to UC_M--><g id="link_AdminPrestamos_UC_M"><path d="M155.3,1247.1994 C176.08,1259.6594 199.98,1272.6394 223,1282.0894 C250.01,1293.1794 274.6196,1300.7422 302.6196,1307.7522 " fill="none" id="AdminPrestamos-to-UC_M" style="stroke:#181818;stroke-width:1.0;"/><polygon fill="#181818" points="308.44,1309.2094,300.6809,1303.1434,303.5897,1307.9951,298.738,1310.9039,308.44,1309.2094" style="stroke:#181818;stroke-width:1.0;"/></g><!--link AdminPrestamos to UC_Aprobar--><g id="link_AdminPrestamos_UC_Aprobar"><path d="M146.86,1168.6794 C161.51,1154.4494 175.76,1137.1394 184,1118.0894 C224.66,1024.0794 149.06,267.9694 223,197.0894 C330.81,93.7494 447.19,98.0994 559,197.0894 C624.2,254.8194 610.24,899.7994 654,975.0894 C669.66,1002.0394 692.5746,1019.9437 716.8346,1034.1737 " fill="none" id="AdminPrestamos-to-UC_Aprobar" style="stroke:#181818;stroke-width:1.0;"/><polygon fill="#181818" points="722.01,1037.2094,716.2707,1029.2056,717.6972,1034.6796,712.2231,1036.1061,722.01,1037.2094" style="stroke:#181818;stroke-width:1.0;"/></g><!--link AdminPrestamos to UC_H--><g id="link_AdminPrestamos_UC_H"><path d="M184.1,1191.3894 C224.44,1183.7394 266.2851,1175.8175 306.7751,1168.1375 " fill="none" id="AdminPrestamos-to-UC_H" style="stroke:#181818;stroke-width:1.0;"/><polygon fill="#181818" points="312.67,1167.0194,303.0822,1164.7666,307.7576,1167.9511,304.5731,1172.6265,312.67,1167.0194" style="stroke:#181818;stroke-width:1.0;"/></g><!--link Consultor to UC_N--><g id="link_Consultor_UC_N"><path d="M121.77,1687.4094 C144.62,1719.1094 180.85,1762.3694 223,1787.0894 C248.61,1802.1094 273.366,1810.4891 301.986,1816.6891 " fill="none" id="Consultor-to-UC_N" style="stroke:#181818;stroke-width:1.0;"/><polygon fill="#181818" points="307.85,1817.9594,299.9009,1812.1446,302.9633,1816.9008,298.2071,1819.9632,307.85,1817.9594" style="stroke:#181818;stroke-width:1.0;"/></g><!--link Consultor to UC_O--><g id="link_Consultor_UC_O"><path d="M166.59,1648.0894 C197.56,1648.0894 228.96,1648.0894 264.74,1648.0894 " fill="none" id="Consultor-to-UC_O" style="stroke:#181818;stroke-width:1.0;"/><polygon fill="#181818" points="270.74,1648.0894,261.74,1644.0894,265.74,1648.0894,261.74,1652.0894,270.74,1648.0894" style="stroke:#181818;stroke-width:1.0;"/></g><!--link Consultor to UC_P--><g id="link_Consultor_UC_P"><path d="M166.81,1675.0194 C185.01,1681.5894 204.64,1688.3694 223,1694.0894 C252.75,1703.3594 279.8505,1710.8596 309.2505,1718.4496 " fill="none" id="Consultor-to-UC_P" style="stroke:#181818;stroke-width:1.0;"/><polygon fill="#181818" points="315.06,1719.9494,307.3456,1713.8266,310.2187,1718.6995,305.3458,1721.5727,315.06,1719.9494" style="stroke:#181818;stroke-width:1.0;"/></g><!--link Consultor to UC_J--><g id="link_Consultor_UC_J"><path d="M97.81,1608.9694 C103.47,1533.9894 126.8,1369.7394 223,1282.0894 C241.33,1265.3894 259.1895,1256.3673 283.2395,1249.6773 " fill="none" id="Consultor-to-UC_J" style="stroke:#181818;stroke-width:1.0;"/><polygon fill="#181818" points="289.02,1248.0694,279.2772,1246.6276,284.2029,1249.4094,281.4212,1254.335,289.02,1248.0694" style="stroke:#181818;stroke-width:1.0;"/></g><!--link Consultor to UC_M--><g id="link_Consultor_UC_M"><path d="M108.98,1608.9294 C127.35,1558.6594 165.28,1471.3294 223,1416.0894 C253.4,1386.9994 289.6951,1367.9425 325.2951,1353.5925 " fill="none" id="Consultor-to-UC_M" style="stroke:#181818;stroke-width:1.0;"/><polygon fill="#181818" points="330.86,1351.3494,321.0172,1351.0042,326.2226,1353.2187,324.0081,1358.4241,330.86,1351.3494" style="stroke:#181818;stroke-width:1.0;"/></g><!--link UC_K to UC_ValidarReq--><g id="link_UC_K_UC_ValidarReq"><path d="M508.22,1075.9694 C527.02,1082.5594 545.04,1092.1594 559,1106.0894 C568.16,1115.2294 558.71,1124.1494 567,1134.0894 C594.62,1167.2194 614.07,1160.7794 654,1177.0894 C674.54,1185.4794 692.0367,1191.5483 712.0567,1197.8483 " fill="none" id="UC_K-to-UC_ValidarReq" style="stroke:#181818;stroke-width:1.0;stroke-dasharray:7.0,7.0;"/><polygon fill="#181818" points="717.78,1199.6494,710.3957,1193.1323,713.0106,1198.1485,707.9943,1200.7634,717.78,1199.6494" style="stroke:#181818;stroke-width:1.0;"/><text fill="#000000" font-family="sans-serif" font-size="13" lengthAdjust="spacing" textLength="55" x="568" y="1130.5845">&#171;include&#187;</text></g><!--link UC_K to UC_CalcMonto--><g id="link_UC_K_UC_CalcMonto"><path d="M491.87,1080.7294 C555.76,1094.2794 635.1005,1111.1147 693.6705,1123.5347 " fill="none" id="UC_K-to-UC_CalcMonto" style="stroke:#181818;stroke-width:1.0;stroke-dasharray:7.0,7.0;"/><polygon fill="#181818" points="699.54,1124.7794,691.5655,1118.9994,694.6488,1123.7422,689.906,1126.8254,699.54,1124.7794" style="stroke:#181818;stroke-width:1.0;"/><text fill="#000000" font-family="sans-serif" font-size="13" lengthAdjust="spacing" textLength="55" x="568" y="1095.5845">&#171;include&#187;</text></g><!--link UC_K to UC_Aprobar--><g id="link_UC_K_UC_Aprobar"><path d="M525.63,1061.0794 C569.1,1060.7294 611.7402,1060.3678 653.9002,1060.0278 " fill="none" id="UC_K-to-UC_Aprobar" style="stroke:#181818;stroke-width:1.0;stroke-dasharray:7.0,7.0;"/><polygon fill="#181818" points="659.9,1059.9794,650.868,1056.0521,654.9002,1060.0197,650.9325,1064.0518,659.9,1059.9794" style="stroke:#181818;stroke-width:1.0;"/><text fill="#000000" font-family="sans-serif" font-size="13" lengthAdjust="spacing" textLength="53" x="569" y="1057.5845">&#171;extend&#187;</text></g><!--link UC_L to UC_CalcInteres--><g id="link_UC_L_UC_CalcInteres"><path d="M475.28,1466.2494 C543.94,1478.9194 640.5497,1496.7503 703.9897,1508.4603 " fill="none" id="UC_L-to-UC_CalcInteres" style="stroke:#181818;stroke-width:1.0;stroke-dasharray:7.0,7.0;"/><polygon fill="#181818" points="709.89,1509.5494,701.7656,1503.9822,704.9731,1508.6418,700.3134,1511.8493,709.89,1509.5494" style="stroke:#181818;stroke-width:1.0;"/><text fill="#000000" font-family="sans-serif" font-size="13" lengthAdjust="spacing" textLength="55" x="568" y="1481.5845">&#171;include&#187;</text></g><!--link UC_L to UC_ActSaldo--><g id="link_UC_L_UC_ActSaldo"><path d="M495.13,1452.3394 C556.25,1451.8294 629.7102,1451.2297 686.9302,1450.7497 " fill="none" id="UC_L-to-UC_ActSaldo" style="stroke:#181818;stroke-width:1.0;stroke-dasharray:7.0,7.0;"/><polygon fill="#181818" points="692.93,1450.6994,683.8968,1446.775,687.9302,1450.7413,683.9639,1454.7747,692.93,1450.6994" style="stroke:#181818;stroke-width:1.0;"/><text fill="#000000" font-family="sans-serif" font-size="13" lengthAdjust="spacing" textLength="55" x="568" y="1448.5845">&#171;include&#187;</text></g><!--link UC_F to UC_E--><g id="link_UC_F_UC_E"><path d="M525.13,842.7594 C566.67,842.6394 606.98,842.5255 647.86,842.4155 " fill="none" id="UC_F-to-UC_E" style="stroke:#181818;stroke-width:1.0;stroke-dasharray:7.0,7.0;"/><polygon fill="#181818" points="653.86,842.3994,644.8493,838.4236,648.86,842.4128,644.8708,846.4236,653.86,842.3994" style="stroke:#181818;stroke-width:1.0;"/><text fill="#000000" font-family="sans-serif" font-size="13" lengthAdjust="spacing" textLength="55" x="568" y="839.5845">&#171;include&#187;</text></g><!--link UC_K to GMN66--><g id="link_UC_K_GMN66"><path d="M315.65,1043.1494 C271.64,1028.2894 223.46,1002.3094 203.5,957.5894 C177.69,899.7494 177.69,445.4294 203.5,387.5894 C223.25,343.3294 265.92,311.3994 306.76,289.6894 " fill="none" id="UC_K-GMN66" style="stroke:#181818;stroke-width:1.0;stroke-dasharray:7.0,7.0;"/></g><!--SRC=[XLRDRjiu4BxhAGR98LiKJbEWXq1e3CYoP3ln7-mamEvbmKYCIeGMlHBTfbtqkW_GIyyvzbZqsflVf4-o8r7K7-KqI13pcs_-oHbpUYz12aXOz4v2o18QI2PYAtrWyPOaP0DR4ZoGYAxbHquX4vCuujIo99C831c9a4KWfE2ILAJPXvjKG0_MB9LKIPR9_bigoKQabaK2AH8uSi8DYv6Ha12Fg_4Ha1HoS3M6usaMpe3lQ3UzORBIN2PKGOM1KK9fh2rucosdg9tJzQ4W_aav5nyqqnLnkkDI-LdHhKWaLLugYT9RilZ1iigYm54jvn76mlO_udQm_re0-5kK5OxgF9V8_HCNKSOx7kO_EHzWbzA0f4XV-Jt7XYdw8GaiTwXSLE36_Ting0CRd2YXKSdLr851TKkhkZYbNTSW3okxZReYUMYG9pRCHCZkMT11do3zypCb6MDC8c64OqMyS_-DVzvH4S-6MvfKtBpcpTfuXf9lOxqtTwoiZH6RR-YCkXmrRoBgZNwJKrtZs3_ppxskfAviM0lE0eOzULLsKQjgNrU6tbZ5EAIIS4xJXaEjDJQqBilsNmjiFN3yCpExDFHcrMKisONl-XMQDHLl2MSXwgpeFpkMibgV2WaAcXekuS6EeyfCnDYgsVxfaLNvPD9Sq5Hojecum-gjQF2EVEegNy7uJSESEn6hPla7cZMrCPSe7r29eciFqmDvJ699isZgAUGOJLj917A7HSd2NnDUtKx4ytD7x7femKSziaWUFSRkdtL4FxVrdEkyBND3OM7Nta2jyUqNj30qbtQTZpcmz_WVVOEVDKahBlEiFblM2KR6IO0xYQOsjBU6fJT6hzTN4x053Dg0smQ6RM3I1hmsuBV3qcbRvLufc5S6CZAGyVD9DjTdQy-LRhhnwG7yyW0-Eu3hLz8jDH8erwHLBSo2EpUXXGajJUZIX6PDly3YWEz2-ee-IXg7LbONE3tjDwSAsF3sRS7iznkaSeWymoagaJEK7oHaZ6dTIl6EJJibIp_U5YNZ-9hZjOKdC1Vuae4-Rd4l47mw9BLYWQzMVNqJzyO4LGSRF_N0YIMBzZzfI4BeNy1h8Fll8fUiMGpRwbKIzIfpaIh8U_nQml1-OxwGERHCjytvfQSRNAYX1VklS7PwzXf5ok85BjyjhZOEBqjos_oTa59i2llPelCmm33_ZichUBFarelfn9rSEyC5_Fhl2pZBrMAW3oXstEl9hJgvYxaxlPaCiydqXu2LvuwTlv3wedB-Fm00]--></g></svg>